<svg xmlns="http://www.w3.org/2000/svg" width="180" height="29" viewBox="0 0 179.6 28.9"><circle cx="98.9" cy="14.4" r="10.6" fill="#FFD47D"/><path d="M109.6 14.4c-6.9-4.6-13.3-7.3-21.3 0 0-4 4.8-10.6 10.6-10.6C104.8 3.8 109.6 9.6 109.6 14.4z" fill="#FFA749"/><path d="M99 2.2c-6.8 0-12.2 5.5-12.2 12.2 0 6.7 5.5 12.2 12.2 12.2 6.7 0 12.2-5.5 12.2-12.2C111.2 7.7 105.7 2.2 99 2.2zM108.2 14.4c0 5.1-4.1 9.2-9.2 9.2 -5.1 0-9.2-4.1-9.2-9.2 0-0.1 0-0.3 0-0.4 1.9-1.4 4.1-2.3 6.5-2.7 -1.7 0.9-2.9 2.8-2.9 4.9 0 3.1 2.5 5.6 5.6 5.6 3.1 0 5.6-2.5 5.6-5.6 0-2-1.1-3.8-2.7-4.8 2.3 0.5 4.5 1.5 6.3 3C108.2 14.4 108.2 14.4 108.2 14.4zM96.6 11.8c0.8 0 1.4 0.6 1.4 1.4 0 0.8-0.6 1.4-1.4 1.4 -0.8 0-1.4-0.6-1.4-1.4C95.1 12.4 95.8 11.8 96.6 11.8zM98.7 7.9c-3.5 0-6.7 1.7-8.7 4.4 1-4.1 4.6-7.1 9-7.1 4.7 0 8.6 3.5 9.1 8C106.1 10 102.7 7.9 98.7 7.9zM13.1 15.7c-0.2 0.1-1.6 1.8-3.6 1.7 -2-0.2-3-1.1-3.5-3.1l7.8-1.1c0.3-0.2 0.5-0.5 0.5-0.9 0-1.9-1.1-5-5.3-5.1 -3.1 0-6.7 1.9-6.7 6.9 0 4.9 3.6 6.9 6.6 6.9 1.4 0 2.9-0.5 3.9-1.4 1.2-1.1 1.7-2.5 1.6-3.1C14.4 15.3 13.3 15.6 13.1 15.7zM7.7 9.5c1.4-0.3 2.2 0.8 2.4 2.3 -0.2 0-3.5 0.5-4.3 0.6C6 10.8 6.3 9.8 7.7 9.5zM71.2 15.7c-0.2 0.1-1.6 1.8-3.6 1.7 -2-0.2-3-1.1-3.5-3.1l7.8-1.1c0.3-0.2 0.5-0.5 0.5-0.9 0-1.9-1.1-5-5.3-5.1 -3.1 0-6.7 1.9-6.7 6.9s3.6 6.9 6.6 6.9c1.4 0 2.9-0.5 3.9-1.4 1.2-1.1 1.7-2.5 1.6-3.1C72.4 15.3 71.4 15.6 71.2 15.7zM65.7 9.5c1.4-0.3 2.2 0.8 2.4 2.3 -0.2 0-3.5 0.5-4.3 0.6C64 10.8 64.3 9.8 65.7 9.5zM35.5 11.3c0 4.4 0 8.9 0 8.9l0 0c0 0.2-0.2 0.4-0.4 0.4h-3.6c-0.2 0-0.4-0.2-0.4-0.4h0v-9.2c0-0.8-0.8-1.4-1.7-1.4 -0.9 0-1.7 0.6-1.7 1.4v9.2h0c0 0.2-0.2 0.4-0.4 0.4h-3.6c-0.2 0-0.4-0.2-0.4-0.4 0 0 0 0 0 0v-9.2c0-0.8-0.8-1.4-1.7-1.4 -0.9 0-1.7 0.6-1.7 1.4v9.2h0c0 0.2-0.2 0.4-0.4 0.4h-3.6c-0.2 0-0.4-0.2-0.4-0.4 0 0 0-8.1 0-10.7 0-1.2 1.8-1.8 3.5-2.1 1.6-0.4 5.1-0.4 6.8 1.2 1.2-1.3 5.7-1.9 7.5-1C35.1 8.5 35.5 9.7 35.5 11.3zM47.6 8.5c-0.1 0-0.1-0.1-0.2-0.1 0 0 0 0-0.1-0.1 -0.3-0.2-0.5-0.4-0.8-0.5 -1-0.5-2.5-0.7-4.1-0.7 -3.1 0-5.6 1-5.6 2.3v7.5h0v9.2c0 0.2 0.2 0.4 0.4 0.4h3.6c0.2 0 0.4-0.2 0.4-0.4l0 0c0 0 0-2.5 0-5.6 0.7 0.3 1.5 0.4 2.3 0.4 1.7 0 3.1-0.7 4-1.6 1.2-1.1 2-3.1 2-5.4 0-2.3-0.7-4.4-1.9-5.5C47.6 8.5 47.6 8.5 47.6 8.5zM45.1 14.1c0 1.3-0.2 2.4-0.6 3.1 0 0 0 0.1 0 0.1 0 0 0 0 0 0 0 0.1-0.1 0.2-0.1 0.2 -0.4 0.7-1.2 1-1.8 0.9 -0.4 0-0.8-0.1-1.3-0.3 0-0.3 0-0.6 0-0.8h0v-1.6c0 0 0 0 0 0v-5.3c0-0.6 0.5-1 1-1 0.3 0 1.3 0.1 2.1 1.3C45.1 12.1 45.1 13.2 45.1 14.1zM60.6 9.4c0 2.1-2.6 2-3.1 0.8 -0.4-1.2-1.2-1.1-1.5-1.1 -0.6 0-1 0.5-1 1l0 1.2h0c0 0.3 0 0.6 0 0.8v2.4c0 3.1 0 5.6 0 5.6l0 0c0 0.2-0.2 0.4-0.4 0.4h-3.6c-0.2 0-0.4-0.2-0.4-0.4v-9.2h0V9c0-1.3 2.5-1.9 5.6-1.9C57.9 7.1 60.6 7.2 60.6 9.4zM86.3 19.4c0 0 0 0 0 0 -0.3-0.3-0.6-0.6-1-0.7 -0.5-0.3-1.2-0.6-2.1-0.7 -2.1-0.2-4.6-0.2-4.6-0.2s-1.2 0-1.4-0.6c-0.1-0.3 0.2-0.8 0.4-1.1 0.4 0.1 0.8 0.1 1.3 0.1 3.8 0 5.7-1.9 5.8-4.3 0-0.8-0.2-1.5-0.6-2.1 0.6-0.2 2.5-0.6 2.5-0.7 0.1-0.1-0.3-1.4-0.5-1.4 -0.2 0-1.4 0.3-2.8 0.3 -0.6 0-1.6-0.5-2.5-0.6 -1.3-0.2-2.3-0.1-2.3-0.1 -3.1 0.1-5.1 2-5.2 4.4 0 1.7 0.8 3.2 2.5 4 -0.4 0.3-1.1 0.9-1.7 1.5 -0.6 0.6-0.7 1.4-0.8 1.7 0 0 0 0 0 0 0 0.1 0 0.2 0 0.2 0 1 0.8 1.7 1.7 1.9 -1.6 1-2.5 2.1-2.2 3.4 0.2 0.8 0.7 1.4 1.7 1.8 2.2 0.9 6.1 0.9 8 0.1 2.9-1.1 4.4-2.9 4.5-4.6 0 0 0 0 0 0 0-0.1 0-0.2 0-0.3 0 0 0 0 0 0 0-0.7-0.3-1.4-0.7-1.9H86.3zM78.3 9.2c0.9-0.3 2 0.5 2.3 1.8 0.4 1.2-0.1 2.5-1 2.7 -0.9 0.3-2-0.5-2.3-1.8C77 10.7 77.4 9.5 78.3 9.2zM82.8 23c-0.3 0.7-1.6 1.3-3.3 1.3 -1.6 0-2.9-0.5-3.3-1.3h0c0 0 0 0 0 0 0 0 0-0.1 0-0.1 0-0.1 0-0.1 0-0.2 0 0 0 0 0 0 0-0.1 0-0.3 0.1-0.5 0.2-0.4 0.6-0.8 0.6-0.8s0.5 0 1.2 0.1c0.5 0 2.1 0 3.1 0.1 0 0 0 0 0 0 0.2 0 0.3 0 0.5 0.1 0.1 0 0.1 0 0.1 0 0.6 0.2 1.1 0.6 1.1 1.1C82.9 22.8 82.9 22.9 82.8 23zM122.6 16.1c0 0.2 0.1 0.4 0.1 0.7 0 0.2 0 0.4 0 0.6 0 1.3-1.3 3.5-5.4 3.5 -3.4 0-5.2-1.5-5.2-3.6 0-0.1 0-0.8 0.9-1.2 0.9-0.4 1.9 0 2.3 0.6 0.8 1.1 1.5 1.9 2.2 1.9 0.7 0 1.4-0.5 1.3-1.5 0-0.2-0.3-0.7-0.7-1 -0.9-0.6-2.3-1-3.2-1.5h0c0 0-0.3-0.2-0.8-0.5 0 0 0 0 0 0 -0.3-0.2-0.6-0.5-0.9-0.8 -0.5-0.6-0.7-1.5-0.7-1.7 0-0.2 0-0.4 0-0.6 0-0.2 0-0.4 0-0.6 0-1.2 1.3-3.3 5.1-3.3 3.2 0 4.8 1.2 4.8 3.1 0 0.1 0 0.8-0.9 1.2 -0.8 0.4-1.7 0.1-2.1-0.4 -0.8-1-1.1-1.9-2-1.9 -0.9 0.1-1.3 0.6-1.2 1.5 0 0.2 0.2 0.6 0.7 0.9 0.8 0.5 2.4 1 3.3 1.5 0.3 0.2 0.6 0.3 0.7 0.4 0 0 0.1 0 0.1 0.1 0.1 0.1 0.1 0.1 0.1 0.1l0 0c0.3 0.2 0.6 0.5 0.9 0.7 0.1 0.1 0.2 0.2 0.3 0.4C122.4 15.2 122.5 15.6 122.6 16.1zM156.9 14.8c0 2.9 0 5.9 0 5.9h0c0 0.1-0.1 0.3-0.3 0.3h0 -1.9c-0.2 0-0.3-0.1-0.3-0.3 0 0 0 0 0 0v-6.2c0-0.5-0.5-1.3-1.4-1.3 -1 0-1.4 0.6-1.4 1.1v6.4h0c0 0.1-0.1 0.3-0.3 0.3h-1.9 0c-0.1 0-0.3-0.1-0.3-0.3 0 0 0 0 0 0v-6.2c0-0.5-0.5-1.3-1.4-1.3 -1 0-1.4 0.6-1.4 1.1v6.4h0c0 0.1-0.1 0.3-0.3 0.3h-1.9c-0.1 0-0.3-0.1-0.3-0.3 0 0 0-5.4 0-7.1 0-0.8 1-1.2 2-1.4 1.1-0.2 3.4-0.3 4.5 0.8 0.8-0.9 3.8-1.2 5-0.6C156.9 12.9 156.9 13.7 156.9 14.8zM161 19.7c0 0.7-0.6 1.3-1.4 1.3 -0.8 0-1.4-0.6-1.4-1.3 0-0.7 0.6-1.3 1.4-1.3C160.4 18.4 161 18.9 161 19.7zM126 19.7c0 0.7-0.6 1.3-1.4 1.3 -0.7 0-1.4-0.6-1.4-1.3 0-0.7 0.6-1.3 1.4-1.3C125.4 18.4 126 18.9 126 19.7zM168.5 12.2c-1.8-1.1-3.9 0.3-4.1 0.6 0-2.1 0-4.6 0-4.6l0 0c0-0.1-0.1-0.3-0.3-0.3h-1.7c-0.2 0-0.3 0.1-0.3 0.3v6.2h0v5c0 0.9 1.7 1.6 3.7 1.6 0.6 0 2.1-0.3 3.1-1.4 0.9-1 1.2-2.6 1.2-3.4C170.1 15.5 170.3 13.3 168.5 12.2zM167.2 18.7c-0.7 0.9-0.9 0.9-1.7 0.9s-1.2-0.7-1.2-1.1v-3.3c0 0 0 0 0 0v-0.7l0-0.4c0-0.2 0 0 0-0.2 0.4-0.4 0.8-0.6 1.2-0.6 0.6-0.1 1.2 0.2 1.7 0.6 0 0.1 0.1 0.1 0.1 0.2 0 0 0 0 0 0 0 0 0 0 0 0.1 0.3 0.5 0.5 1.3 0.5 2.2C167.9 17 168 17.8 167.2 18.7zM177.3 13.3c0 1.4-1.6 1.1-1.9 0.3s-1.9-0.7-1.9 0.4l0 0.8h0c0 0.2 0 0.4 0 0.6v1.6c0 2.1 0 3.8 0 3.8l0 0c0 0.1-0.1 0.3-0.3 0.3h-1.8c-0.1 0-0.3-0.1-0.3-0.3v-6.1h0v-1.2c0-0.9 1.7-1.3 3.7-1.3C175.9 12 177.3 11.9 177.3 13.3zM138.7 11.7c-2.5 0-4.4 1.9-4.4 4.6s2 4.6 4.4 4.6c2.5 0 4.4-1.7 4.4-4.6C143.1 13.4 141.1 11.7 138.7 11.7zM138.9 19.6c-1.1 0.1-2.1-1.4-2.2-3.2 -0.1-1.8 0.8-3.3 1.9-3.4 1.1-0.1 2.1 1.4 2.2 3.2C140.9 18 140 19.5 138.9 19.6zM133.6 18.6c-0.3 1.3-1.9 2.3-3.3 2.3 -0.9 0-1.9-0.2-2.6-0.9 -0.9-0.8-1.4-2.2-1.4-3.7 0-1.2 0.4-2.2 1-3l0 0c0 0 0 0 0 0 0.6-0.8 1.5-1.4 2.5-1.5 0 0 0 0 0 0 0.3-0.1 0.7-0.1 1.1 0 2.2 0.3 3.1 1.6 2.5 2.6 -0.2 0.3-0.8 0.7-1.3 0.4 -0.5-0.3-0.8-1.4-1.4-1.6 -0.3-0.1-1-0.1-1.4 0.1 -0.4 0.2-0.6 0.6-0.7 0.8 -0.3 0.5-0.4 1.1-0.4 1.8 0 0.1 0 0.3 0 0.4 0.1 1.5 1.1 2.7 2.4 2.7 1.5 0 2-1.5 2.3-1.6C133.3 17.4 133.9 17.4 133.6 18.6z" fill="#003CA4"/></svg>
