<svg xmlns="http://www.w3.org/2000/svg" width="180" height="29" viewBox="0 0 179.6 28.9"><circle cx="98.9" cy="14.4" r="10.6" fill="#FFD47D"/><path d="M109.6 14.4c-6.9-4.6-13.3-7.3-21.3 0 0-4 4.8-10.6 10.6-10.6 5.9 0 10.7 5.8 10.7 10.6z" fill="#FFA749"/><path d="M99 2.2c-6.8 0-12.2 5.5-12.2 12.2 0 6.7 5.5 12.2 12.2 12.2 6.7 0 12.2-5.5 12.2-12.2 0-6.7-5.5-12.2-12.2-12.2zm9.2 12.2c0 5.1-4.1 9.2-9.2 9.2s-9.2-4.1-9.2-9.2V14c1.9-1.4 4.1-2.3 6.5-2.7-1.7.9-2.9 2.8-2.9 4.9 0 3.1 2.5 5.6 5.6 5.6 3.1 0 5.6-2.5 5.6-5.6 0-2-1.1-3.8-2.7-4.8 2.3.5 4.5 1.5 6.3 3zm-11.6-2.6c.8 0 1.4.6 1.4 1.4 0 .8-.6 1.4-1.4 1.4-.8 0-1.4-.6-1.4-1.4-.1-.8.6-1.4 1.4-1.4zm2.1-3.9c-3.5 0-6.7 1.7-8.7 4.4 1-4.1 4.6-7.1 9-7.1 4.7 0 8.6 3.5 9.1 8-2-3.2-5.4-5.3-9.4-5.3zm-85.6 7.8c-.2.1-1.6 1.8-3.6 1.7-2-.2-3-1.1-3.5-3.1l7.8-1.1c.3-.2.5-.5.5-.9 0-1.9-1.1-5-5.3-5.1-3.1 0-6.7 1.9-6.7 6.9C2.3 19 5.9 21 8.9 21c1.4 0 2.9-.5 3.9-1.4 1.2-1.1 1.7-2.5 1.6-3.1 0-1.2-1.1-.9-1.3-.8zM7.7 9.5c1.4-.3 2.2.8 2.4 2.3-.2 0-3.5.5-4.3.6.2-1.6.5-2.6 1.9-2.9zm63.5 6.2c-.2.1-1.6 1.8-3.6 1.7-2-.2-3-1.1-3.5-3.1l7.8-1.1c.3-.2.5-.5.5-.9 0-1.9-1.1-5-5.3-5.1-3.1 0-6.7 1.9-6.7 6.9S64 21 67 21c1.4 0 2.9-.5 3.9-1.4 1.2-1.1 1.7-2.5 1.6-3.1-.1-1.2-1.1-.9-1.3-.8zm-5.5-6.2c1.4-.3 2.2.8 2.4 2.3-.2 0-3.5.5-4.3.6.2-1.6.5-2.6 1.9-2.9zm-30.2 1.8v8.9c0 .2-.2.4-.4.4h-3.6c-.2 0-.4-.2-.4-.4V11c0-.8-.8-1.4-1.7-1.4-.9 0-1.7.6-1.7 1.4v9.2c0 .2-.2.4-.4.4h-3.6c-.2 0-.4-.2-.4-.4V11c0-.8-.8-1.4-1.7-1.4-.9 0-1.7.6-1.7 1.4v9.2c0 .2-.2.4-.4.4h-3.6c-.2 0-.4-.2-.4-.4V9.5c0-1.2 1.8-1.8 3.5-2.1 1.6-.4 5.1-.4 6.8 1.2 1.2-1.3 5.7-1.9 7.5-1 1.8.9 2.2 2.1 2.2 3.7zm12.1-2.8c-.1 0-.1-.1-.2-.1l-.1-.1c-.3-.2-.5-.4-.8-.5-1-.5-2.5-.7-4.1-.7-3.1 0-5.6 1-5.6 2.3v16.7c0 .2.2.4.4.4h3.6c.2 0 .4-.2.4-.4v-5.6c.7.3 1.5.4 2.3.4 1.7 0 3.1-.7 4-1.6 1.2-1.1 2-3.1 2-5.4 0-2.3-.7-4.4-1.9-5.5v.1zm-2.5 5.6c0 1.3-.2 2.4-.6 3.1v.1c0 .1-.1.2-.1.2-.4.7-1.2 1-1.8.9-.4 0-.8-.1-1.3-.3v-7.7c0-.6.5-1 1-1 .3 0 1.3.1 2.1 1.3.7 1.4.7 2.5.7 3.4zm15.5-4.7c0 2.1-2.6 2-3.1.8-.4-1.2-1.2-1.1-1.5-1.1-.6 0-1 .5-1 1v10c0 .2-.2.4-.4.4H51c-.2 0-.4-.2-.4-.4V9c0-1.3 2.5-1.9 5.6-1.9 1.7 0 4.4.1 4.4 2.3zm25.7 10c-.3-.3-.6-.6-1-.7-.5-.3-1.2-.6-2.1-.7-2.1-.2-4.6-.2-4.6-.2s-1.2 0-1.4-.6c-.1-.3.2-.8.4-1.1.4.1.8.1 1.3.1 3.8 0 5.7-1.9 5.8-4.3 0-.8-.2-1.5-.6-2.1.6-.2 2.5-.6 2.5-.7.1-.1-.3-1.4-.5-1.4s-1.4.3-2.8.3c-.6 0-1.6-.5-2.5-.6-1.3-.2-2.3-.1-2.3-.1-3.1.1-5.1 2-5.2 4.4 0 1.7.8 3.2 2.5 4-.4.3-1.1.9-1.7 1.5-.6.6-.7 1.4-.8 1.7v.2c0 1 .8 1.7 1.7 1.9-1.6 1-2.5 2.1-2.2 3.4.2.8.7 1.4 1.7 1.8 2.2.9 6.1.9 8 .1 2.9-1.1 4.4-2.9 4.5-4.6v-.3c0-.7-.3-1.4-.7-1.9zm-8-10.2c.9-.3 2 .5 2.3 1.8.4 1.2-.1 2.5-1 2.7-.9.3-2-.5-2.3-1.8-.3-1.2.1-2.4 1-2.7zM82.8 23c-.3.7-1.6 1.3-3.3 1.3-1.6 0-2.9-.5-3.3-1.3v-.3c0-.1 0-.3.1-.5.2-.4.6-.8.6-.8s.5 0 1.2.1c.5 0 2.1 0 3.1.1.2 0 .3 0 .5.1h.1c.6.2 1.1.6 1.1 1.1 0 0 0 .1-.1.2zm39.8-6.9c0 .2.1.4.1.7v.6c0 1.3-1.3 3.5-5.4 3.5-3.4 0-5.2-1.5-5.2-3.6 0-.1 0-.8.9-1.2.9-.4 1.9 0 2.3.6.8 1.1 1.5 1.9 2.2 1.9.7 0 1.4-.5 1.3-1.5 0-.2-.3-.7-.7-1-.9-.6-2.3-1-3.2-1.5 0 0-.3-.2-.8-.5-.3-.2-.6-.5-.9-.8-.5-.6-.7-1.5-.7-1.7v-1.2c0-1.2 1.3-3.3 5.1-3.3 3.2 0 4.8 1.2 4.8 3.1 0 .1 0 .8-.9 1.2-.8.4-1.7.1-2.1-.4-.8-1-1.1-1.9-2-1.9-.9.1-1.3.6-1.2 1.5 0 .2.2.6.7.9.8.5 2.4 1 3.3 1.5.3.2.6.3.7.4 0 0 .1 0 .1.1l.1.1c.3.2.6.5.9.7.1.1.2.2.3.4.1.5.2.9.3 1.4zm34.3-1.3v5.9c0 .1-.1.3-.3.3h-1.9c-.2 0-.3-.1-.3-.3v-6.2c0-.5-.5-1.3-1.4-1.3-1 0-1.4.6-1.4 1.1v6.4c0 .1-.1.3-.3.3h-1.9c-.1 0-.3-.1-.3-.3v-6.2c0-.5-.5-1.3-1.4-1.3-1 0-1.4.6-1.4 1.1v6.4c0 .1-.1.3-.3.3h-1.9c-.1 0-.3-.1-.3-.3v-7.1c0-.8 1-1.2 2-1.4 1.1-.2 3.4-.3 4.5.8.8-.9 3.8-1.2 5-.6 1.6.5 1.6 1.3 1.6 2.4zm4.1 4.9c0 .7-.6 1.3-1.4 1.3-.8 0-1.4-.6-1.4-1.3 0-.7.6-1.3 1.4-1.3.8 0 1.4.5 1.4 1.3zm-35 0c0 .7-.6 1.3-1.4 1.3-.7 0-1.4-.6-1.4-1.3 0-.7.6-1.3 1.4-1.3.8 0 1.4.5 1.4 1.3zm42.5-7.5c-1.8-1.1-3.9.3-4.1.6V8.2c0-.1-.1-.3-.3-.3h-1.7c-.2 0-.3.1-.3.3v11.2c0 .9 1.7 1.6 3.7 1.6.6 0 2.1-.3 3.1-1.4.9-1 1.2-2.6 1.2-3.4 0-.7.2-2.9-1.6-4zm-1.3 6.5c-.7.9-.9.9-1.7.9s-1.2-.7-1.2-1.1v-4.6c.4-.4.8-.6 1.2-.6.6-.1 1.2.2 1.7.6 0 .1.1.1.1.2v.1c.3.5.5 1.3.5 2.2.1.6.2 1.4-.6 2.3zm10.1-5.4c0 1.4-1.6 1.1-1.9.3s-1.9-.7-1.9.4v6.8c0 .1-.1.3-.3.3h-1.8c-.1 0-.3-.1-.3-.3v-7.3c0-.9 1.7-1.3 3.7-1.3 1.1-.2 2.5-.3 2.5 1.1zm-38.6-1.6c-2.5 0-4.4 1.9-4.4 4.6s2 4.6 4.4 4.6c2.5 0 4.4-1.7 4.4-4.6 0-2.9-2-4.6-4.4-4.6zm.2 7.9c-1.1.1-2.1-1.4-2.2-3.2-.1-1.8.8-3.3 1.9-3.4 1.1-.1 2.1 1.4 2.2 3.2.1 1.8-.8 3.3-1.9 3.4zm-5.3-1c-.3 1.3-1.9 2.3-3.3 2.3-.9 0-1.9-.2-2.6-.9-.9-.8-1.4-2.2-1.4-3.7 0-1.2.4-2.2 1-3 .6-.8 1.5-1.4 2.5-1.5.3-.1.7-.1 1.1 0 2.2.3 3.1 1.6 2.5 2.6-.2.3-.8.7-1.3.4-.5-.3-.8-1.4-1.4-1.6-.3-.1-1-.1-1.4.1-.4.2-.6.6-.7.8-.3.5-.4 1.1-.4 1.8v.4c.1 1.5 1.1 2.7 2.4 2.7 1.5 0 2-1.5 2.3-1.6.4 0 1 0 .7 1.2z" fill="#003CA4"/></svg>