<svg xmlns="http://www.w3.org/2000/svg" xmlns:xlink="http://www.w3.org/1999/xlink" width="394" height="1080"><svg width="94" height="134" viewBox="-2 6 32 44"><radialGradient id="a" cx="-105.922" cy="7.369" r="22.834" gradientTransform="matrix(.9986 0 0 .9387 110.903 5.096)" gradientUnits="userSpaceOnUse"><stop offset="0" stop-color="#97ccea"/><stop offset="1" stop-color="#2880c1"/></radialGradient><path fill="url(#a)" d="M0 6.5h28v27H0z"/><path fill="#2083C6" d="M8.691 16.18l-.025-.063c-.024-.063-.115-.121-.181-.142a.199.199 0 0 0-.066-.011H7.193a.695.695 0 0 0-.106.023c-.021.009-.042.016-.061.034l-.05.039a.221.221 0 0 0-.075.094l-.681 1.72-.799-1.732a3.94 3.94 0 0 1-.041-.067.222.222 0 0 0-.134-.093.714.714 0 0 0-.101-.018H3.983a.55.55 0 0 0-.106.02.409.409 0 0 0-.141.133.212.212 0 0 0-.035.119v2.053l-.955-2.152a.336.336 0 0 0-.062-.087.217.217 0 0 0-.11-.066.706.706 0 0 0-.104-.018h-.988a.812.812 0 0 0-.102.018.425.425 0 0 0-.129.085.322.322 0 0 0-.046.066L.048 18.681v1.114h.749c.023 0 .083-.019.104-.024a.437.437 0 0 0 .092-.052.18.18 0 0 0 .077-.092l.268-.595h1.265l.254.555a.645.645 0 0 0 .041.068.27.27 0 0 0 .055.062l.052.036a.231.231 0 0 0 .128.043h1.539c.035 0 .065-.01.098-.024l.075-.039a.214.214 0 0 0 .121-.196v-1.302l.667 1.408c.02.048.084.095.129.117.013.006.059.019.068.025.023.006.042.011.066.011h.615c.014 0 .082-.017.101-.02a.346.346 0 0 0 .128-.085.224.224 0 0 0 .043-.062l.604-1.303v1.182a.25.25 0 0 0 .023.103l.023.048c.031.06.082.101.148.117.015.002.08.02.1.02h.727a.216.216 0 0 0 .096-.024l.05-.023a.217.217 0 0 0 .104-.105l.023-.05a.239.239 0 0 0 .023-.097V16.26a.204.204 0 0 0-.013-.08zm.317 3.614a.212.212 0 0 1-.098-.024.303.303 0 0 1-.125-.11.435.435 0 0 1-.036-.125v-3.3c0-.026.003-.047.013-.069.021-.067.086-.155.152-.179.021-.006.08-.023.104-.023h2.539c.035 0 .07.007.102.023a.349.349 0 0 1 .123.115c.014.029.033.09.033.122v.687a.225.225 0 0 1-.105.189c-.043.039-.098.072-.152.072h-1.514v.058h1.503a.21.21 0 0 1 .152.062l.05.047a.219.219 0 0 1 .066.159v.663a.217.217 0 0 1-.061.152c-.041.06-.135.133-.208.133h-1.479v.095h1.49c.035 0 .07.007.102.025a.27.27 0 0 1 .156.23v.74a.222.222 0 0 1-.064.156c-.041.04-.131.103-.193.103h-2.55zm15.633 0a.226.226 0 0 1-.153-.062c-.012-.014-.062-.064-.069-.082l-.969-1.554v1.439c0 .03-.008.062-.018.095a.327.327 0 0 1-.117.128.308.308 0 0 1-.123.036h-1.599a.223.223 0 0 1-.154-.062l-.077-.082a.256.256 0 0 1-.045-.064l-.236-.523-1.304-.007-.241.565a.247.247 0 0 1-.047.069.37.37 0 0 1-.13.085c-.017.002-.085.02-.1.02H18.18l-.184-.028-.328-.096-.311-.152a.271.271 0 0 1-.066-.048l-.212-.239-.199-.263a.203.203 0 0 1-.029-.059l-.089-.252-.107-.431-.02-.473.064-.459.151-.445a.17.17 0 0 1 .021-.047l.075-.112.21-.274a.198.198 0 0 1 .038-.039l.236-.189a.694.694 0 0 1 .052-.03l.301-.124.345-.064 1.09-.003a.26.26 0 0 1 .098.02c.074.04.15.129.15.213v.38l.203-.443a.149.149 0 0 1 .037-.059.335.335 0 0 1 .134-.093.716.716 0 0 1 .103-.018h.988c.018 0 .085.013.101.018a.25.25 0 0 1 .105.06c.02.02.06.067.073.094l.9 2.039v-1.951c0-.035.006-.07.023-.099.025-.055.082-.122.141-.138a.593.593 0 0 1 .105-.023h1.113c.034 0 .07.007.098.025l.078.038a.268.268 0 0 1 .084.08l1.005 1.606v-1.489c0-.097.062-.205.152-.237.022-.006.082-.023.108-.023h.748c.023 0 .047.003.07.013.09.026.189.125.189.22v3.338c0 .095-.063.203-.152.235-.023.005-.084.024-.107.024h-1.124zm-6.218-1.242h.14l.608-1.333h-.763l-.166.009-.125.072-.096.093-.045.126-.062.253v.285l.064.258.057.091.11.082.145.052.133.012zm-3.955 1.242a.249.249 0 0 1-.1-.024.37.37 0 0 1-.118-.104.382.382 0 0 1-.038-.129l-.014-.648v-.117l-.04-.081-.072-.052-.116-.027-.769.003v.92a.25.25 0 0 1-.036.122c-.042.061-.132.137-.209.137h-.735a.218.218 0 0 1-.092-.021.287.287 0 0 1-.131-.116.282.282 0 0 1-.037-.122v-3.312c0-.097.062-.208.154-.24a.555.555 0 0 1 .105-.02h2.16l.305.055a.177.177 0 0 1 .072.029l.248.148c.02.009.033.019.049.032l.17.176a.136.136 0 0 1 .035.044l.138.24.098.309c.003.02.007.041.007.061v.251a.287.287 0 0 1-.009.068l-.089.276a.173.173 0 0 1-.03.057l-.149.211-.029.031.048.042a.185.185 0 0 1 .044.054l.1.175c.011.02.014.036.021.053l.04.152.054 1.094a.22.22 0 0 1-.02.105c-.027.054-.085.121-.147.14-.021.005-.083.024-.104.024h-.764zm-.447-2.379l.035-.011.057-.019.024-.018.027-.051-.016-.044-.045-.05-.051-.033H13.2v.222l.821.004zm5.06 8.037a.217.217 0 0 1-.095-.02.306.306 0 0 1-.129-.115c-.013-.031-.037-.086-.037-.12v-3.3c0-.023.008-.044.016-.064.017-.069.082-.159.148-.185a.555.555 0 0 1 .106-.022h2.526c.025 0 .045.002.068.011.092.027.191.125.191.224v.71a.265.265 0 0 1-.025.104c-.037.075-.127.144-.209.144h-1.539v.067h1.502c.057 0 .113.024.154.066l.053.049a.233.233 0 0 1 .064.159v.661a.2.2 0 0 1-.013.072c-.021.064-.087.153-.149.175a.609.609 0 0 1-.109.024h-1.479v.108h1.49c.025 0 .045.005.064.009.094.032.195.126.195.222v.765a.27.27 0 0 1-.025.104.335.335 0 0 1-.112.118.408.408 0 0 1-.122.032h-2.534z"/><path fill="#2083C6" d="M22.092 25.452a.216.216 0 0 1-.152-.061.288.288 0 0 1-.092-.193v-.738c0-.058.022-.112.062-.154.043-.042.123-.092.182-.092h1.652l.004-.051-.004-.02-.521.012-.196-.013-.472-.077a.22.22 0 0 1-.062-.019l-.254-.123a.197.197 0 0 1-.068-.05l-.176-.187-.072-.104a.214.214 0 0 1-.029-.054l-.084-.276-.035-.324v-.167l.051-.314a.148.148 0 0 1 .019-.057l.116-.24.053-.082.225-.2c.016-.012.031-.027.048-.033l.216-.1c.017-.008.029-.016.052-.019l.187-.037.453-.051 1.516-.002c.045 0 .087.013.122.039.06.04.136.136.136.208v.749c0 .094-.062.205-.15.233a.45.45 0 0 1-.107.025H23.17v.005h.509l.194.016.445.08.105.032.229.129c.017.011.033.021.045.036l.176.174c.013.012.023.029.035.044l.051.09.107.319c.004.018.006.038.009.056l.014.274v.172l-.039.296a.243.243 0 0 1-.017.052l-.111.265c-.008.018-.018.033-.027.047l-.036.052c-.015.013-.027.027-.042.038l-.188.149-.255.126-.206.064-.462.055-.027.001h-1.587zm-10.786 0a.261.261 0 0 1-.099-.022l-.125-.059a.37.37 0 0 1-.066-.055l-.693-.79-.766.833a.21.21 0 0 1-.1.059l-.072.026a.267.267 0 0 1-.064.008H6.258a.265.265 0 0 1-.063-.008C6.1 25.412 6 25.318 6 25.221v-3.323c0-.103.068-.231.167-.253.019-.004.088-.019.105-.019h3.174c.024 0 .043.002.068.011a.363.363 0 0 1 .13.069l.725.851.683-.815a.783.783 0 0 1 .049-.05.232.232 0 0 1 .16-.066h2.721l.227.013.323.067c.022.005.04.009.054.023l.252.133.254.217a.363.363 0 0 1 .056.073l.136.302.077.334.008.347a.204.204 0 0 1-.009.055l-.076.3-.135.318a.267.267 0 0 1-.035.061l-.09.099-.25.183-.285.135a.28.28 0 0 1-.064.02l-.273.036-1.094.002v.854a.211.211 0 0 1-.064.155l-.044.042a.219.219 0 0 1-.15.057h-1.494zm-2.435-1.251l.592-.658-.607-.725H7.291v.067h1.492c.049 0 .096.017.139.051l.064.051c.051.042.08.102.08.172v.661c0 .043-.015.09-.041.125a.359.359 0 0 1-.134.123.537.537 0 0 1-.107.024H7.305v.108h1.566zm2.902-.019v-1.218l-.541.578.541.64zm2.042-.996l.121-.028.098-.069.013-.033-.008-.092-.003-.007-.062-.048-.088-.027h-.832v.305h.761z"/><path fill="#2083C6" d="M17.793 25.452a.215.215 0 0 1-.195-.12c-.038-.037-.048-.069-.051-.126l-.022-.651v-.125l-.041-.068-.072-.062-.115-.024-.758.002v.919a.238.238 0 0 1-.041.129c-.041.055-.136.125-.205.125h-.762a.223.223 0 0 1-.143-.054c-.004-.002-.047-.043-.051-.043a.223.223 0 0 1-.065-.158v-3.312c0-.034.007-.065.021-.096a.333.333 0 0 1 .121-.134.504.504 0 0 1 .117-.03h2.188c.016 0 .034.002.053.005l.25.062.295.141c.021.015.037.026.051.039l.203.187a.155.155 0 0 1 .039.052l.139.237c.008.019.018.038.021.058l.062.249a.168.168 0 0 1 .007.052v.275c0 .021-.003.04-.007.064l-.076.26c-.006.016-.013.036-.025.053l-.135.227a.177.177 0 0 1-.042.048l.028.023a.387.387 0 0 1 .035.045l.113.175a.282.282 0 0 1 .031.08l.036.213.041 1.018a.222.222 0 0 1-.059.159c-.006.004-.044.042-.05.047a.225.225 0 0 1-.148.057h-.788zm-.449-2.39l.102-.006.033-.016.025-.027.004-.022-.024-.073-.038-.041-.066-.036h-.84v.222h.804zm-1.639-3.268a.21.21 0 0 1-.096-.024.294.294 0 0 1-.129-.12.323.323 0 0 1-.031-.115v-3.312c0-.097.061-.205.151-.237a.624.624 0 0 1 .104-.023h.752a.24.24 0 0 1 .094.02.339.339 0 0 1 .131.118c.014.029.033.09.033.122v3.312a.222.222 0 0 1-.064.156c-.002 0-.043.04-.047.043a.21.21 0 0 1-.146.059h-.752z"/><path fill="#FFF" d="M1.971 17.086l-.01-.015h-.016l-.023.015-.014.011-.398.863v.027l.01.01.015.014h.822l.016-.014.012-.01v-.027l-.4-.863zm18.024.925h.823l.014-.014.011-.01v-.027l-.4-.863-.014-.011-.012-.015h-.011l-.024.015v.011l-.4.863v.027l.013.01zm-6.961-.374h.987l.073-.014.115-.035.099-.067.06-.125.027-.085-.053-.151-.1-.113-.135-.076h-1.113l-.013.028v.602l.013.022zm-1.042 5.096l-.008-.124-.027-.064-.051-.025-.038.025-.897.953v.075l.875 1.038.074.009.037-.037.027-.038.008-.099.004.002v-1.894l-.004-.004zm2.229.088l-.142-.113-.159-.05h-1.062l-.014.012-.01.027v.674l.01.025.014.011h.986l.187-.048.164-.113.026-.013.049-.147-.012-.176zm-5.412-.224H7.107l-.037.012v.465l.037.035h1.676l.063.051v.661l-.026.035-.037.015H7.107l-.021.04v.473l.021.039h1.825l.05-.014.75-.836v-.051l-.772-.925zm8.773.1l-.152-.075h-1.061l-.025.023-.024.013v.588l.024.037h1l.164-.011.099-.051.076-.075.036-.06.011-.116-.047-.161z"/><path fill="#FFF" d="M25.945 15.778l-.039-.012a.467.467 0 0 0-.139-.02h-.747a.478.478 0 0 0-.142.02l-.036.012a.438.438 0 0 0-.302.419v.748l-.598-.956a.43.43 0 0 0-.173-.157l-.076-.04a.457.457 0 0 0-.199-.046h-1.113a.46.46 0 0 0-.137.02l-.039.012a.426.426 0 0 0-.256.222l-.014.023a.453.453 0 0 0-.047.201v.903l-.478-1.079a.386.386 0 0 0-.09-.133l-.024-.029a.464.464 0 0 0-.213-.118l-.048-.013a.409.409 0 0 0-.104-.011h-.988a.406.406 0 0 0-.103.011l-.048.013a.424.424 0 0 0-.225.128h-.004a.451.451 0 0 0-.127-.097l-.025-.013a.446.446 0 0 0-.193-.043h-1.051c-.024 0-.049 0-.074.006l-.301.05a.255.255 0 0 0-.096.028l-.299.124a.404.404 0 0 0-.104.062l-.237.188a.366.366 0 0 0-.078.079l-.044.06v-.117a.465.465 0 0 0-.043-.192l-.014-.029a.428.428 0 0 0-.205-.202l-.025-.013a.45.45 0 0 0-.191-.043h-.752a.447.447 0 0 0-.138.02l-.038.012c-.152.051-.244.187-.277.341l-.041-.043a.405.405 0 0 0-.089-.068l-.253-.15a.407.407 0 0 0-.143-.056l-.263-.05c-.028-.006-.052-.006-.083-.006h-2.16a.462.462 0 0 0-.136.02l-.036.012a.42.42 0 0 0-.172.122c-.033-.033-.055-.079-.098-.097l-.023-.014a.466.466 0 0 0-.199-.043H9.018a.429.429 0 0 0-.133.02l-.039.012c-.047.016-.084.045-.123.074a.434.434 0 0 0-.129-.076l-.04-.012a.5.5 0 0 0-.135-.018H7.193a.464.464 0 0 0-.137.02l-.034.012a.388.388 0 0 0-.126.066l-.053.038a.477.477 0 0 0-.146.19l-.494 1.243-.582-1.263c-.01-.018-.02-.039-.034-.057l-.022-.041a.441.441 0 0 0-.266-.183l-.049-.013a.414.414 0 0 0-.104-.011H3.983a.444.444 0 0 0-.136.02l-.037.013a.422.422 0 0 0-.237.183l-.024.038a.447.447 0 0 0-.067.237v1.008l-.531-1.195a.361.361 0 0 0-.08-.125l-.021-.026a.45.45 0 0 0-.22-.128l-.054-.013a.395.395 0 0 0-.104-.011h-.99a.426.426 0 0 0-.105.011l-.048.013a.45.45 0 0 0-.206.114l-.027.027a.518.518 0 0 0-.091.132L.049 18.15v1.064l1.357-2.989.029-.027.047-.011h.988l.053.011.023.027 1.189 2.685.098.075h.087v-2.748l.024-.039.038-.011h1.163l.046.011.028.039.938 2.035.063.025.075-.025.811-2.035.05-.039.036-.011h1.226l.04.011.025.063v3.234l-.025.053-.051.024h-.725l-.047-.013-.027-.052v-2.024l-.036-.022-.04.022-.947 2.053-.025.023-.047.013h-.617l-.039-.013-.024-.011-.988-2.087-.062-.013-.038.035v2.053l-.073.036H3.133l-.05-.036-.024-.041-.301-.66-.021-.012-.052-.014H1.224l-.026.014-.012.012-.312.701-.037.023-.038.013h-.75v.442h.749c.045 0 .09-.009.136-.021l.037-.015a.364.364 0 0 0 .108-.05l.038-.027a.391.391 0 0 0 .156-.186l.209-.466h.98l.192.427c.011.021.019.041.033.059l.023.039a.45.45 0 0 0 .112.118l.051.036a.43.43 0 0 0 .258.086H4.67a.46.46 0 0 0 .199-.047l.072-.038a.438.438 0 0 0 .244-.394v-.317l.243.518a.481.481 0 0 0 .212.209l.027.013c.02.008.039.016.053.02l.039.015a.498.498 0 0 0 .135.021h.615a.533.533 0 0 0 .101-.012l.048-.014a.432.432 0 0 0 .213-.12l.025-.026a.394.394 0 0 0 .084-.124l.184-.391v.18c0 .071.016.138.047.198l.025.051a.438.438 0 0 0 .289.232l.05.011c.034.01.07.015.104.015h.727a.423.423 0 0 0 .188-.045l.052-.024c.031-.014.039-.043.066-.064.027.027.043.061.074.077l.023.01a.444.444 0 0 0 .195.047h2.549a.44.44 0 0 0 .313-.13l.028-.031c.036.038.061.083.109.105l.023.01a.42.42 0 0 0 .189.045h.735a.44.44 0 0 0 .37-.201l.023-.036a.447.447 0 0 0 .074-.242v-.698h.546l.009.004v.042l.013.661c.001.069.018.14.05.199l.015.024a.42.42 0 0 0 .188.185.552.552 0 0 0 .224.062h.764a.478.478 0 0 0 .131-.021l.042-.011c.023-.009.047-.027.07-.041.006.003.008.014.015.018l.026.01a.44.44 0 0 0 .189.045h.752a.422.422 0 0 0 .297-.12c.008-.001.024-.016.027-.021l.024-.023a.44.44 0 0 0 .13-.313v-.133l.191.213a.478.478 0 0 0 .131.102l.277.135a.875.875 0 0 0 .07.031l.302.084c.015.007.036.009.054.015l.15.025c.023.002.047.005.068.005h1.079a.496.496 0 0 0 .1-.012l.05-.014c.08-.02.156-.06.215-.12l.024-.026a.417.417 0 0 0 .093-.135l.18-.428h1.016l.178.398a.504.504 0 0 0 .087.129l.042.037.045.045c.082.08.191.125.306.125h1.598a.442.442 0 0 0 .197-.047l.025-.01a.484.484 0 0 0 .205-.21l.01-.023a.46.46 0 0 0 .043-.188v-.667l.559.901c.021.027.041.057.066.081l.039.038c.082.08.191.125.305.125h1.127a.544.544 0 0 0 .139-.021l.039-.015a.44.44 0 0 0 .301-.419v-3.335a.463.463 0 0 0-.295-.445zm-14.351 1.133l-.023.013-.014.023H9.833l-.013.024v.425l.036.052h1.689l.048.048v.663l-.023.027-.024.036H9.867l-.021.028v.473l.021.037h1.689l.025.011.012.026v.74l-.023.023-.014.013H9.008l-.025-.013-.012-.023v-3.3l.012-.039.035-.011h2.539l.025.011.012.027v.686zm3.637 2.661h-.764l-.022-.013-.014-.023-.014-.652v-.161l-.088-.175-.148-.111-.161-.038h-.986l-.04.013-.013.013v1.112l-.025.036h-.735l-.025-.013-.015-.023v-3.339l.04-.011h2.16l.263.049.251.151.175.174.137.239.022.075v.603l-.035.111-.149.209-.188.189.088.033.152.139.098.176.035.136v1.064c0 .012.006.023.006.036h-.005zm1.263-.036l-.025.023-.012.013h-.792l.005-3.348v-.027l.035-.011h.752l.023.011.014.027v3.312zm9.311-3.312v3.335l-.037.013h-1.127l-.034-.036-1.339-2.15h-.039v2.15l-.012.023-.025.013h-1.598l-.038-.036-.038-.041-.274-.611-.035-.035-.053-.013h-1.522l-.014.023-.285.678-.027.023-.048.013h-1.08l-.146-.024-.303-.088-.274-.135-.212-.24-.187-.249-.09-.25-.032-.14V17.27l.122-.346.073-.116.201-.26.236-.187.301-.126.299-.049h1.051l.023.011v.787l-.023.014h-.811l-.229.011-.2.115-.144.148-.066.176-.078.299v.338l.078.286.1.188.176.126.197.073.166.011h.297l1.163-2.545.024-.027.051-.011h.988l.051.011.024.027 1.186 2.685.083.063h.041l.014-.022v-2.727l.012-.027.039-.011h1.113l.072.038 1.375 2.199h.039v-2.226l.039-.011h.748l.037.011v.028zm-6.977 1.214l-.406.894-.082-.009-.088-.033-.043-.027-.025-.05-.049-.184v-.227l.054-.224.021-.061.042-.038.055-.033.124-.007h.397z"/><path fill="#2083C6" d="M27.775 23.206l-.028-.028a.167.167 0 0 0-.046-.036l-.229-.129-.104-.032-.439-.08-.199-.016h-.51l-.002-.005h1.535c.006 0 .014-.008.021-.008v-1.245l-.008-.002-1.523.002-.455.055-.188.033a.172.172 0 0 0-.052.019l-.213.1c-.018.006-.035.021-.051.033l-.188.161a.296.296 0 0 0-.053.068l-.148.286a.146.146 0 0 0-.02.062l-.056.315v.167l.037.324.086.273a.162.162 0 0 0 .041.075l.226.265a.224.224 0 0 0 .078.059l.232.109a.26.26 0 0 0 .084.031l.472.077.196.013.523-.012.008.04-.002.033h-1.655c-.06 0-.141.05-.184.092a.22.22 0 0 0-.064.154v.738c0 .034.023.095.039.127.01.02.037.05.057.066.041.04.095.061.152.061h1.586l.023-.001.461-.055.208-.064.257-.126.096-.08v-1.919z"/><g fill="#FFF"><path d="M26.193 22.658h-.048l-.039.025-.05.025-.039.075-.025.099.025.101.039.091.034.012.039.023h.601l.186.013.414.073.062.026.2.113.176.175.007.013v-.873l-.021.009z"/><path d="M27.775 24.818l-.008.016-.038.048-.185.151-.215.102-.177.047-.423.048h-1.586l-.014-.011-.014-.023v-.176c.004-.005.008-.009.009-.012l.111-.263a.387.387 0 0 0 .028-.115l.029-.198h1.501l.086-.009.072-.04.05-.077.023-.125-.023-.124-.05-.086-.048-.026-.062-.028h-.048l-.53.016s-1.216.088-1.216-1.226c0-.908 1.216-.859 1.216-.859h1.502l.008.011v-.454c-.004 0-.005-.003-.008-.003h-1.502c-.015 0-.031.003-.052.005l-.434.05c-.013 0-.024.005-.036.007l-.184.035c-.039.006-.072.019-.105.031l-.213.101c-.035.021-.069.041-.101.067a.413.413 0 0 0-.148-.193l-.037-.023a.42.42 0 0 0-.249-.081h-1.49c-.016 0-.033.003-.051.005l-.436.05c-.014 0-.023.005-.035.007l-.19.035c-.034.006-.065.019-.101.031l-.212.101a.877.877 0 0 0-.101.064l-.043.037c-.043-.133-.125-.253-.259-.297l-.038-.011a.387.387 0 0 0-.135-.023h-2.526a.404.404 0 0 0-.138.023l-.035.013a.439.439 0 0 0-.285.288l-.012.04-.004.033-.098-.088a.39.39 0 0 0-.102-.071l-.252-.126a.548.548 0 0 0-.088-.033l-.25-.064c-.039-.007-.075-.014-.109-.014h-2.187a.502.502 0 0 0-.182.041l-.029.013a.463.463 0 0 0-.215.211l-.01.027c-.012.023-.012.052-.017.078l-.054-.047a.448.448 0 0 0-.084-.058l-.25-.136a.54.54 0 0 0-.113-.042l-.289-.064c-.021-.005-.047-.005-.068-.009l-.217-.011c-.008-.003-.017-.003-.023-.003H11.26c-.12 0-.232.05-.314.131l-.037.039c-.008.009-.018.016-.026.027l-.517.616-.522-.614-.039-.041a.407.407 0 0 0-.188-.122l-.035-.011a.428.428 0 0 0-.137-.023H6.271a.448.448 0 0 0-.106.014l-.046.011a.444.444 0 0 0-.34.432v3.337c0 .192.125.391.311.446l.038.013c.044.012.087.02.13.02H9.32a.414.414 0 0 0 .131-.022l.078-.025a.433.433 0 0 0 .189-.121l.602-.652.531.605a.344.344 0 0 0 .136.101l.123.066c.06.029.129.047.195.047h1.49a.46.46 0 0 0 .303-.122l.024-.022.023-.024a.449.449 0 0 0 .125-.311v-.634h.847c.021 0 .04-.004.061-.005l.274-.036a.554.554 0 0 0 .125-.035l.25-.114a.3.3 0 0 0 .068-.041l.158-.111v.976c0 .116.048.23.131.315l.025.022c.006.008.023.026.03.027a.437.437 0 0 0 .29.114h.762a.436.436 0 0 0 .355-.182l.028-.037a.451.451 0 0 0 .085-.26v-.698h.541v.046l.023.669a.45.45 0 0 0 .124.286.464.464 0 0 0 .343.176h.789c.09 0 .176-.036.254-.088.014.009.017.027.033.034l.026.011a.444.444 0 0 0 .186.043h2.536c.066 0 .13-.016.189-.043l.022-.011c.014-.007.019-.02.028-.029a.44.44 0 0 0 .234.083h1.587a.193.193 0 0 0 .053-.007l.425-.047a.386.386 0 0 0 .074-.014l.172-.05a.396.396 0 0 0 .065-.025l.214-.1c.014-.008.029-.02.045-.031v.003l.014.023a.48.48 0 0 0 .404.248h1.586a.18.18 0 0 0 .051-.007l.425-.047a.352.352 0 0 0 .069-.014l.172-.05a.49.49 0 0 0 .07-.025l.212-.1c.018-.005.03-.02.046-.028v-.585zm-12.72-1.346l-.111.249-.088.101-.212.15-.249.114-.276.037h-1.26l-.015.023-.01.012v1.04l-.013.011-.025.023h-1.49l-.124-.061-.81-.924-.04-.013-.05.013-.888.962-.074.022H6.258l-.036-.011v-3.36l.05-.011h3.174l.037.011.026.025.835.987.028.01.021-.01.828-.987.039-.036h2.72l.215.011.289.062.245.137.214.187.111.236v.99zm3.527 1.759h-.789l-.013-.023-.011-.011-.024-.652v-.177l-.089-.146-.137-.126-.176-.038h-1l-.023.012v1.127l-.027.034h-.762l-.012-.011-.024-.023v-3.312l.009-.025.027-.011h2.187l.251.059.249.125.201.188.134.237.048.19v.389l-.059.208-.135.226-.217.172.08.027.159.15.112.176.039.211.02.568v.421l.002.013-.02.022zm3.074-3.346v.381l-.014.027a.353.353 0 0 0-.033.115l-.033.188H19.93l-.038.013-.01.036v.429l.048.036h1.638l.008.112a.979.979 0 0 0 .02.097l.061.182v.321l-.014.036-.037.015h-1.675l-.025.04v.473l.025.04h1.687l.018.003c0 .012-.01.023-.01.032v.738c0 .011.01.019.01.028l-.018.006-2.562-.011-.002-.005c.002-.011-.01-3.318-.01-3.318l.012-.037.036-.011h2.526l.039.011v.023zm2.023 3.346h-1.587l-.004-.002c0-.011.01-.021.01-.032v-.738c0-.009-.005-.017-.005-.027h1.651l.087-.009.075-.04.049-.077.014-.125-.014-.124-.049-.086-.05-.026-.063-.028h-.049l-.527.016-.174-.016s-1.055.007-1.051-1.043c.003-1.117 1.225-1.025 1.225-1.025h1.49l.035.023.021.785H23.08l-.037.025-.036.025-.038.075-.027.099.027.101.038.091.036.012.037.023h.599l.178.013s1.007.068 1.007.986c-.001 1.09-1.185 1.124-1.185 1.124z"/></g></svg><svg width="109" height="104" viewBox="-2 -2 45 42" y="134"><g fill="none" fill-rule="evenodd"><path fill="#F79F1A" d="M40.521 12.333c0 6.743-5.541 12.21-12.376 12.21-6.836 0-12.377-5.467-12.377-12.21 0-6.743 5.541-12.21 12.377-12.21 6.835 0 12.376 5.467 12.376 12.21z"/><path fill="#EA001B" d="M25.253 12.333c0 6.743-5.541 12.21-12.377 12.21C6.041 24.543.5 19.076.5 12.333.5 5.59 6.041.123 12.876.123c6.836 0 12.377 5.467 12.377 12.21z"/><path fill="#FF5F01" d="M20.51 2.722c-2.887 2.235-4.74 5.708-4.74 9.61 0 3.902 1.853 7.378 4.74 9.613 2.888-2.235 4.742-5.711 4.742-9.613 0-3.902-1.854-7.375-4.741-9.61z"/><path fill="#FFF" d="M2.133 36.904v-8.68h2.863c2.782 0 4.53 1.965 4.53 4.347 0 2.407-1.748 4.333-4.53 4.333H2.133zm.766-.677h2.097c2.366 0 3.723-1.626 3.723-3.656 0-2.03-1.344-3.67-3.723-3.67H2.899v7.326zm11.13-6.558l2.311-1.874h-.833l-2.07 1.874h.591zm-2.998 4.086c0-1.822 1.33-3.292 3.132-3.292 1.975 0 3.064 1.522 3.064 3.33v.183h-5.43c.067 1.366 1.008 2.498 2.54 2.498.82 0 1.573-.299 2.124-.871l.363.442c-.645.65-1.465 1.015-2.54 1.015-1.896 0-3.253-1.366-3.253-3.305zm3.118-2.707c-1.532 0-2.298 1.301-2.352 2.394h4.718c-.014-1.067-.74-2.394-2.366-2.394zm4.88 5.856v-8.68h.698v3.41c.524-.716 1.344-1.171 2.258-1.171 1.734 0 2.903 1.314 2.903 3.305 0 2.017-1.182 3.292-2.903 3.292a2.79 2.79 0 0 1-2.258-1.158v1.002h-.699zm.698-1.575c.376.599 1.237 1.12 2.137 1.12 1.452 0 2.272-1.159 2.272-2.681 0-1.523-.82-2.694-2.272-2.694-.9 0-1.76.547-2.137 1.145v3.11zm7.325-5.7a.53.53 0 0 0 .538-.52c0-.286-.242-.507-.538-.507-.282 0-.537.221-.537.507 0 .287.255.52.537.52zm-.349 7.275h.699v-6.285h-.699v6.285zm4.288.156c.537 0 .846-.156 1.102-.39l-.27-.52a1.03 1.03 0 0 1-.725.298c-.457 0-.672-.35-.672-.858v-4.373h1.317v-.598h-1.317V28.9h-.712v1.718h-1.076v.598h1.076v4.477c0 .859.416 1.366 1.277 1.366zm5.026 0c-1.895 0-3.118-1.47-3.118-3.305 0-1.835 1.223-3.292 3.118-3.292 1.923 0 3.132 1.457 3.132 3.292 0 1.835-1.21 3.305-3.132 3.305zm0-.612c1.533 0 2.38-1.288 2.38-2.693 0-1.393-.847-2.68-2.38-2.68-1.505 0-2.365 1.287-2.365 2.68 0 1.405.86 2.693 2.365 2.693z"/></g></svg><svg width="109" height="104" viewBox="-2 -2 45 42" y="238"><g fill="none" fill-rule="evenodd"><path fill="#F79F1A" d="M40.021 12.833c0 6.743-5.541 12.21-12.376 12.21-6.836 0-12.377-5.467-12.377-12.21 0-6.743 5.541-12.21 12.377-12.21 6.835 0 12.376 5.467 12.376 12.21z"/><path fill="#EA001B" d="M24.753 12.833c0 6.743-5.541 12.21-12.377 12.21C5.541 25.043 0 19.576 0 12.833 0 6.09 5.541.623 12.376.623c6.836 0 12.377 5.467 12.377 12.21z"/><path fill="#FF5F01" d="M20.01 3.222c-2.887 2.235-4.74 5.708-4.74 9.61 0 3.902 1.853 7.378 4.74 9.613 2.888-2.235 4.742-5.711 4.742-9.613 0-3.902-1.854-7.375-4.741-9.61z"/><path fill="#333" d="M1.633 37.404v-8.68h2.863c2.782 0 4.53 1.965 4.53 4.347 0 2.407-1.748 4.333-4.53 4.333H1.633zm.766-.677h2.097c2.366 0 3.723-1.626 3.723-3.656 0-2.03-1.344-3.67-3.723-3.67H2.399v7.326zm11.13-6.558l2.311-1.874h-.833l-2.07 1.874h.591zm-2.998 4.086c0-1.822 1.33-3.292 3.132-3.292 1.975 0 3.064 1.522 3.064 3.33v.183h-5.43c.067 1.366 1.008 2.498 2.54 2.498.82 0 1.573-.299 2.124-.871l.363.442c-.645.65-1.465 1.015-2.54 1.015-1.896 0-3.253-1.366-3.253-3.305zm3.118-2.707c-1.532 0-2.298 1.301-2.352 2.394h4.718c-.014-1.067-.74-2.394-2.366-2.394zm4.88 5.856v-8.68h.698v3.41c.524-.716 1.344-1.171 2.258-1.171 1.734 0 2.903 1.314 2.903 3.305 0 2.017-1.182 3.292-2.903 3.292a2.79 2.79 0 0 1-2.258-1.158v1.002h-.699zm.698-1.575c.376.599 1.237 1.12 2.137 1.12 1.452 0 2.272-1.159 2.272-2.681 0-1.523-.82-2.694-2.272-2.694-.9 0-1.76.547-2.137 1.145v3.11zm7.325-5.7a.53.53 0 0 0 .538-.52c0-.286-.242-.507-.538-.507-.282 0-.537.221-.537.507 0 .287.255.52.537.52zm-.349 7.275h.699v-6.285h-.699v6.285zm4.288.156c.537 0 .846-.156 1.102-.39l-.27-.52a1.03 1.03 0 0 1-.725.298c-.457 0-.672-.35-.672-.858v-4.373h1.317v-.598h-1.317V29.4h-.712v1.718h-1.076v.598h1.076v4.477c0 .859.416 1.366 1.277 1.366zm5.026 0c-1.895 0-3.118-1.47-3.118-3.305 0-1.835 1.223-3.292 3.118-3.292 1.923 0 3.132 1.457 3.132 3.292 0 1.835-1.21 3.305-3.132 3.305zm0-.612c1.533 0 2.38-1.288 2.38-2.693 0-1.393-.847-2.68-2.38-2.68-1.505 0-2.365 1.287-2.365 2.68 0 1.405.86 2.693 2.365 2.693z"/></g></svg><svg width="119" height="84" viewBox="-2 -2 49 33" y="342"><path d="M6.558 28.6v-8.633h2.863c2.782 0 4.53 1.954 4.53 4.323 0 2.394-1.748 4.31-4.53 4.31H6.558zm.766-.673h2.097c2.366 0 3.723-1.618 3.723-3.637 0-2.02-1.344-3.65-3.723-3.65H7.324v7.287zm11.13-6.524l2.311-1.863h-.833l-2.07 1.863h.591zm-2.998 4.065c0-1.812 1.33-3.275 3.132-3.275 1.976 0 3.064 1.514 3.064 3.314v.18h-5.43c.067 1.36 1.008 2.486 2.54 2.486.82 0 1.573-.298 2.124-.867l.363.44c-.645.647-1.465 1.01-2.54 1.01-1.895 0-3.253-1.36-3.253-3.288zm3.118-2.693c-1.532 0-2.298 1.295-2.352 2.382h4.718c-.014-1.061-.74-2.382-2.366-2.382zm4.88 5.825v-8.633h.698v3.39c.524-.71 1.344-1.164 2.258-1.164 1.734 0 2.904 1.307 2.904 3.288 0 2.006-1.183 3.274-2.904 3.274a2.795 2.795 0 0 1-2.258-1.152v.997h-.699zm.698-1.566c.377.595 1.237 1.113 2.137 1.113 1.452 0 2.272-1.152 2.272-2.666 0-1.515-.82-2.68-2.272-2.68-.9 0-1.76.544-2.137 1.14v3.093zm7.326-5.67a.53.53 0 0 0 .537-.517c0-.285-.242-.505-.537-.505-.283 0-.538.22-.538.505 0 .285.255.518.538.518zm-.35 7.236h.699v-6.252h-.699V28.6zm4.288.155c.537 0 .846-.155 1.102-.388l-.269-.518a1.033 1.033 0 0 1-.726.298c-.457 0-.672-.35-.672-.854v-4.35h1.317v-.595h-1.317V20.64h-.712v1.708h-1.075v.596h1.075v4.452c0 .855.416 1.36 1.277 1.36zm5.027 0c-1.896 0-3.119-1.462-3.119-3.287s1.223-3.275 3.119-3.275c1.922 0 3.131 1.45 3.131 3.275s-1.21 3.287-3.131 3.287zm0-.608c1.532 0 2.379-1.281 2.379-2.68 0-1.384-.847-2.666-2.38-2.666-1.505 0-2.365 1.282-2.365 2.667 0 1.398.86 2.679 2.366 2.679zM22.288.75l-2.94 13.537h-3.556L18.732.75h3.556zm14.957 8.74l1.873-5.082 1.077 5.082h-2.95zm3.97 4.797H44.5L41.633.75h-3.036c-.683 0-1.26.39-1.513.992l-5.335 12.545h3.732l.742-2.021h4.562l.43 2.02zM31.931 9.87c.017-3.578-5.015-3.774-4.98-5.367.011-.489.48-1.005 1.507-1.138.51-.064 1.913-.114 3.507.606L32.59 1.1c-.854-.304-1.957-.6-3.326-.6-3.512 0-5.988 1.84-6.007 4.478-.023 1.947 1.765 3.035 3.114 3.685 1.383.662 1.847 1.087 1.844 1.682-.01.907-1.107 1.309-2.128 1.322-1.787.03-2.827-.474-3.652-.852l-.646 2.966c.83.376 2.364.699 3.955.719 3.734 0 6.178-1.82 6.188-4.63zM17.208.75l-5.76 13.537h-3.76L4.854 3.483c-.174-.667-.324-.908-.846-1.19C3.155 1.835 1.743 1.407.5 1.14L.586.75h6.048c.772 0 1.465.504 1.64 1.38l1.498 7.835L13.471.75h3.737z" fill="#FFF" fill-rule="evenodd"/></svg><svg width="114" height="74" viewBox="-2 -2 49 33" y="426"><g fill="none" fill-rule="evenodd"><path fill="#333" d="M6.558 28.1v-8.633h2.863c2.782 0 4.53 1.954 4.53 4.323 0 2.394-1.748 4.31-4.53 4.31H6.558zm.766-.673h2.097c2.366 0 3.723-1.618 3.723-3.637 0-2.02-1.344-3.65-3.723-3.65H7.324v7.287zm11.13-6.524l2.311-1.863h-.833l-2.07 1.863h.591zm-2.998 4.065c0-1.812 1.33-3.275 3.132-3.275 1.976 0 3.064 1.514 3.064 3.314v.18h-5.43c.067 1.36 1.008 2.486 2.54 2.486.82 0 1.573-.298 2.124-.867l.363.44c-.645.647-1.465 1.01-2.54 1.01-1.895 0-3.253-1.36-3.253-3.288zm3.118-2.693c-1.532 0-2.298 1.295-2.352 2.382h4.718c-.014-1.061-.74-2.382-2.366-2.382zm4.88 5.825v-8.633h.698v3.39c.524-.71 1.344-1.164 2.258-1.164 1.734 0 2.904 1.307 2.904 3.288 0 2.006-1.183 3.274-2.904 3.274a2.795 2.795 0 0 1-2.258-1.152v.997h-.699zm.698-1.566c.377.595 1.237 1.113 2.137 1.113 1.452 0 2.272-1.152 2.272-2.666 0-1.515-.82-2.68-2.272-2.68-.9 0-1.76.544-2.137 1.14v3.093zm7.326-5.67a.53.53 0 0 0 .537-.517c0-.285-.242-.505-.537-.505-.283 0-.538.22-.538.505 0 .285.255.518.538.518zm-.35 7.236h.699v-6.252h-.699V28.1zm4.288.155c.537 0 .846-.155 1.102-.388l-.269-.518a1.033 1.033 0 0 1-.726.298c-.457 0-.672-.35-.672-.854v-4.35h1.317v-.595h-1.317V20.14h-.712v1.708h-1.075v.596h1.075v4.452c0 .855.416 1.36 1.277 1.36zm5.027 0c-1.896 0-3.119-1.462-3.119-3.287s1.223-3.275 3.119-3.275c1.922 0 3.131 1.45 3.131 3.275s-1.21 3.287-3.131 3.287zm0-.608c1.532 0 2.379-1.281 2.379-2.68 0-1.384-.847-2.666-2.38-2.666-1.505 0-2.365 1.282-2.365 2.667 0 1.398.86 2.679 2.366 2.679z"/><path fill="#10357E" d="M22.288.25l-2.94 13.537h-3.556L18.732.25h3.556zm14.957 8.74l1.873-5.082 1.077 5.082h-2.95zm3.97 4.797H44.5L41.633.25h-3.036c-.683 0-1.26.39-1.513.992l-5.335 12.545h3.732l.742-2.021h4.562l.43 2.02zM31.931 9.37c.017-3.578-5.015-3.774-4.98-5.367.011-.489.48-1.005 1.507-1.138.51-.064 1.913-.114 3.507.606L32.59.6c-.854-.304-1.957-.6-3.326-.6-3.512 0-5.988 1.84-6.007 4.478-.023 1.947 1.765 3.035 3.114 3.685 1.383.662 1.847 1.087 1.844 1.682-.01.907-1.107 1.309-2.128 1.322-1.787.03-2.827-.474-3.652-.852l-.646 2.966c.83.376 2.364.699 3.955.719 3.734 0 6.178-1.82 6.188-4.63zM17.208.25l-5.76 13.537h-3.76L4.854 2.983c-.174-.667-.324-.908-.846-1.19C3.155 1.335 1.743.907.5.64L.586.25h6.048c.772 0 1.465.504 1.64 1.38l1.498 7.835L13.471.25h3.737z"/></g></svg><svg width="209" height="82" viewBox="-2 -2 209 82" y="500"><g transform="translate(0 12)" fill="none" fill-rule="evenodd"><ellipse fill="#FFF" cx="27.383" cy="27.345" rx="26.243" ry="25.949"/><path d="M190.04 10.753V22.9a33.324 33.324 0 0 1-.395 5.034l.598.31.855-.645a8.52 8.52 0 0 0 3.978.993c4.073 0 6.788-3.705 6.788-7.41 0-3.074-1.996-5.933-5.322-5.933-1.61.186-3.11.9-4.263 2.027V6.954c0-.229 0-.403-.23-.403a2.91 2.91 0 0 0-.625.309 18 18 0 0 1-2.946 1.221v.457c1.127.308 1.561.376 1.561 2.215zm2.293 7.356a4.417 4.417 0 0 1 2.716-1.342c2.226 0 4.575 2.537 4.575 5.597 0 2.524-1.29 5.49-4.345 5.49-1.587-.066-2.863-1.316-2.946-2.885v-6.873.013zm-96.39 10.068v-.738h-.489c-.801 0-1.426 0-1.426-.94v-10.86c0-.228 0-.39-.203-.39-.181 0-.359.046-.516.135-.109.094-1.71.617-3.055 1.02v.457c1.06.563 1.494.724 1.494 1.973v7.665c0 .94-.57.94-1.358.94h-.665v.738h3.122c1.032 0 2.05-.013 3.028-.013l.068.013zm15.191-.738h-.515c-.801 0-1.426 0-1.426-.94v-7.29c0-2.2-.855-3.96-3.285-3.96a8.423 8.423 0 0 0-4.956 2.122v-1.84c0-.228-.081-.281-.163-.281-1.234.51-2.494.958-3.774 1.342v.537c1.358.537 1.657.819 1.657 1.866v7.49c0 .94-.57.94-1.358.94h-.516v.739h6.122v-.739h-.515c-.801 0-1.44 0-1.44-.94v-8.363a7.664 7.664 0 0 1 3.327-1.342c.69-.109 1.393.1 1.907.57.513.468.781 1.144.727 1.833v7.316c0 .94-.57.94-1.358.94h-.516v.738h6.123v-.738h-.04zm-34.09.738c10.129 0 11.785-7.034 11.785-9.84 0-5.007-4.073-9.893-11.431-9.893h-8.309v.725c1.29 0 2.634-.135 2.634 2.403V25.29c-.082 1.92-.923 1.973-2.634 2.148v.738h3.829c1.29 0 2.593-.013 4.045-.013l.082.013zM74.493 9.464c.516 0 1.06-.107 2.227-.107 5.525 0 8.947 3.812 8.947 9.101 0 4.215-2.023 8.82-8.146 8.82-1.358 0-2.973-.255-2.973-2.43V9.45l-.055.013zm99.975 18.713v-.738h-.57c-.801 0-1.425 0-1.425-.94V6.954c0-.229 0-.403-.231-.403-.22.079-.43.182-.625.309-.943.492-1.93.901-2.946 1.221v.457c1.086.308 1.52.362 1.52 2.201v15.747c0 .94-.57.94-1.357.94h-.543v.738h6.109l.068.013zm-44.801 0v-.738h-1.656c-.801 0-1.358 0-1.358-.94v-6.645a2.4 2.4 0 0 1 2.09-2.35c1.005 0 1.005.686 1.888.686.38 0 .742-.155 1-.43.258-.276.388-.646.357-1.02a1.536 1.536 0 0 0-.495-1.09 1.572 1.572 0 0 0-1.134-.414c-1.737 0-2.946 1.812-3.652 2.913v-2.537c0-.282-.081-.362-.258-.362-.176 0-1.357.738-3.489 1.61v.417c.435.228 1.48.402 1.48 1.275v7.947c0 .94-.57.94-1.358.94h-.773v.738h3.407c1.181 0 2.322-.04 3.897-.013l.054.013zm46.498-10.175v7.235c-.09.87.203 1.736.803 2.378.6.642 1.45.998 2.333.978 2.037 0 3.354-.993 5.064-2.376V28.5l.136.08a29.639 29.639 0 0 1 4.073-.872v-.59h-1.14c-.49 0-.802 0-.802-.537V16.15c0-.31 0-.511-.23-.511-.231 0-1.887.228-4.467.39v.51c1.032.281 2.403.59 2.403 1.154v7.611a6.435 6.435 0 0 1-3.462 1.719c-2.484 0-2.484-2.43-2.484-3.276v-7.29c0-.617 0-.818-.313-.818-.312 0-2.715.161-3.692.201v.537c1.615.161 1.724.873 1.724 1.611l.054.014zm-39.29 9.692c-1.914-.077-3.467-1.56-3.61-3.45l-.516.147.312 3.249a7.614 7.614 0 0 0 3.489.953c3.408 0 4.915-1.987 4.915-3.84 0-4.442-6.64-3.422-6.64-6.711.031-.545.287-1.054.708-1.407s.97-.519 1.52-.46a2.953 2.953 0 0 1 2.163.748c.589.53.935 1.272.959 2.059h.651l-.203-2.887a7.603 7.603 0 0 0-3.258-.818c-3.15 0-4.44 2.027-4.44 3.624 0 4.55 6.232 3.477 6.232 6.82a1.991 1.991 0 0 1-.714 1.508 2.039 2.039 0 0 1-1.621.451l.054.014zM92.82 10.9a1.417 1.417 0 0 0 1.358-1.41 1.35 1.35 0 0 0-1.358-1.342c-.768 0-1.391.616-1.391 1.376 0 .76.623 1.376 1.391 1.376zm73.8 16.203l.652-4.135-.652-.16c-.43 2.813-2.878 4.891-5.756 4.886-4.399 0-8.526-4.095-8.526-9.813 0-6.78 4.779-8.954 8.064-8.954 3.286 0 5.58 1.342 6.11 4.631h.72l-.286-4.027a20.82 20.82 0 0 0-6.788-1.503c-5.607 0-10.861 4.161-10.861 9.96 0 6.363 4.222 10.632 10.86 10.632 2.24-.059 4.44-.58 6.463-1.53v.013zm-50.232 1.504a6.717 6.717 0 0 0 5.295-3.195l-.394-.39a5.453 5.453 0 0 1-3.855 1.893c-2.281 0-4.073-2.201-4.195-4.886a6.637 6.637 0 0 1 0-1.638h8.037l.258-.174c.012-.17.012-.34 0-.51a4.461 4.461 0 0 0-1.452-3.245 4.565 4.565 0 0 0-3.381-1.185c-1.996 0-5.77 1.637-5.77 7.181.013 1.772.923 6.135 5.471 6.135l-.014.014zm.19-12.444a2.444 2.444 0 0 1 1.831.753c.474.497.712 1.17.654 1.85a.627.627 0 0 1-.203.574.643.643 0 0 1-.598.138h-4.983c.38-2.054 1.575-3.329 3.327-3.329l-.028.014zm-31.7 18.176h-2.212v.59h.407c.36-.022.712.115.961.374a1.2 1.2 0 0 1 .328.969v5.651l-6.788-7.611h-3.231v.59h.272c.75 0 1.357.601 1.357 1.343v6.484c0 1.221-.312 1.879-1.357 1.892h-.286v.591h4.196v-.59h-.34c-1.167 0-1.358-.39-1.358-1.732v-6.162l7.902 8.699h.719v-.08a10.036 10.036 0 0 1-.095-1.544v-7.008c0-1.812.68-1.866 1.358-1.893h.299v-.644h-.068c-.76 0-1.399.067-2.037.067l-.027.014zm-13.644 0h-2.376v.59h.285c.57 0 1.086 0 1.086.82v8.054c0 .751-.515.805-1.086.818h-.285v.591h4.874v-.59h-.299c-.57 0-1.086 0-1.086-.82v-8.054c0-.752.516-.805 1.086-.819h.286v-.67h-.014c-.733 0-1.63.066-2.444.066l-.027.014zm130.901 8.054a3.403 3.403 0 0 1-.461 1.087 2.192 2.192 0 0 1-1.44.806c-.393.02-.787.02-1.18 0h-.856a.807.807 0 0 1-.61-.207.788.788 0 0 1-.259-.585V35.56c0-.778.394-.752.992-.765h.448v-.537h-4.82v.59h.285c.57 0 1.1 0 1.1.806v7.907a.867.867 0 0 1-.288.775.89.89 0 0 1-.812.191h-.285v.591h8.146c.19-.872.407-1.732.57-2.618v-.08h-.584l.054-.027zm-9.883 1.584c-.204-.456-.394-1.02-.57-1.557l-2.865-8.055c0-.12-.095-.268-.136-.389a.177.177 0 0 0-.176-.094.384.384 0 0 0-.15 0c-.43.26-.885.48-1.357.658a19.185 19.185 0 0 1-.61 1.946l-2.485 7.062c-.18.587-.738.979-1.358.953h-.15v.604h3.722V44.5h-.245c-.516 0-1.1-.094-1.1-.47.075-.404.189-.8.34-1.182l.475-1.557h3.435l.584 1.745c.147.35.252.714.312 1.088 0 .295-.543.376-.896.376h-.19v.604h4.548V44.5h-.163a.925.925 0 0 1-.937-.537l-.027.013zm-6.354-3.624l1.358-4.122 1.358 4.122h-2.716zm-3.326-5.477v-.618h-4.154v.59h.407c.362-.026.717.109.967.37.25.26.369.617.323.973v5.652l-6.788-7.612h-3.231v.59h.271c.75 0 1.358.602 1.358 1.343v6.484c0 1.222-.299 1.88-1.358 1.88h-.285v.604h4.195v-.605h-.38c-1.168 0-1.358-.389-1.358-1.731v-6.162l7.902 8.699h.719v-.08a10.394 10.394 0 0 1-.081-1.544V36.7c0-1.812.679-1.866 1.357-1.893h.3l-.164.068zm20.364 1.087l-.271-.376a.511.511 0 0 0 .394-.497.468.468 0 0 0-.182-.337.48.48 0 0 0-.375-.092h-.842v.08c.217 0 .231 0 .231.215v1.195c0 .12 0 .12-.244.148v.107h.76v-.08c-.204 0-.23 0-.23-.135v-.537h.23c.127.292.328.546.584.739h.326a1.735 1.735 0 0 1-.367-.457l-.014.027zm-.529-.416h-.19v-.765h.19a.314.314 0 0 1 .246.099.306.306 0 0 1 .08.25.333.333 0 0 1-.074.267.34.34 0 0 1-.252.122v.027zm-38.746-1.49a5.777 5.777 0 0 0-4.13 1.662 5.646 5.646 0 0 0-1.681 4.083 5.487 5.487 0 0 0 1.713 4.068 5.616 5.616 0 0 0 4.18 1.53 5.818 5.818 0 0 0 4.284-1.7 5.684 5.684 0 0 0 1.661-4.26c0-3.356-2.674-5.41-6.014-5.41l-.013.027zm.23 10.524c-2.457 0-3.72-2.577-3.733-5.37 0-2.053.8-4.39 3.462-4.39 2.66 0 3.747 2.686 3.747 4.9 0 2.216-.502 4.833-3.462 4.833l-.014.027zm38.584-10.659c-.907 0-1.643.728-1.643 1.625s.736 1.624 1.643 1.624 1.643-.727 1.643-1.624a1.588 1.588 0 0 0-.459-1.17 1.625 1.625 0 0 0-1.17-.481l-.014.026zm0 2.94a1.35 1.35 0 0 1-1.358-1.342 1.35 1.35 0 0 1 1.358-1.342c.75 0 1.357.6 1.357 1.342a1.35 1.35 0 0 1-1.344 1.315l-.013.027zM131.81 34.85v-.59h-4.1v.59h.407c.362-.027.717.108.967.368s.369.618.323.974v5.652l-6.788-7.612h-3.286v.59h.272c.75 0 1.358.602 1.358 1.343v6.47c0 1.236-.313 1.88-1.358 1.893h-.285v.591h4.195v-.59h-.326c-1.167 0-1.358-.39-1.358-1.732v-6.162l7.902 8.699h.719v-.08a9.731 9.731 0 0 1-.095-1.544V36.7c0-1.812.68-1.866 1.358-1.893h.095v.04zm-14.513 8.792l-2.607-3.866a2.96 2.96 0 0 0 2.132-2.684c0-2.229-1.82-2.766-3.774-2.766h-4.928v.59h.353c.488 0 1.018 0 1.031 1.102v7.812a.87.87 0 0 1-.348.605.89.89 0 0 1-.683.16h-.353v.591h5.036v-.59h-.353c-.72 0-1.194 0-1.208-1.168v-3.222h.923a43.449 43.449 0 0 0 3.218 4.967h3.054v-.59a1.671 1.671 0 0 1-1.48-.94h-.013zm-5.037-4.188h-.679v-4.39c.272-.018.544-.018.815 0 .6-.044 1.19.172 1.614.592.426.42.644 1.004.599 1.597a1.96 1.96 0 0 1-.595 1.697 2.01 2.01 0 0 1-1.74.518l-.014-.014zm-14.62-5.733v.067c0 .403-.34.403-.774.416H88.72c-.394 0-.679 0-.787-.402h-.489v.067c.003.449-.03.898-.095 1.342 0 .443-.122.873-.19 1.343v.08h.597c.258-1.14.231-1.342 1.358-1.342h2.484v8.148c0 1.195-.366 1.208-1.222 1.222h-.366v.59h5.172v-.59h-.366c-.747 0-1.208-.094-1.222-1.262v-8.055h2.484c.344.02.662.188.87.459.21.27.288.618.217.951v.094l.706-.443v-1.249c0-.416.108-.832.162-1.235l-.434-.067h-.068l.109-.134zm9.3 8.659c-.462 1.731-1.222 1.825-3.096 1.825-1.018 0-1.833 0-1.833-.94V39.75h1.806c1.032 0 1.045.523 1.14 1.463v.067l.543-.108v-3.557h-.597c-.109.832-.258 1.342-1.168 1.342h-1.792v-3.892h2.105a1.546 1.546 0 0 1 1.379.387c.367.346.536.85.453 1.344v.08l.544-.147v-2.47h-7.915v.59h.285c.556 0 1.072 0 1.086.82v8.054c0 .752-.516.805-1.086.819h-.285v.59h8.321c.136-.818.326-1.624.53-2.443l-.503-.134.081-.174zm48.086-8.055h-2.308v.59h.285c.57 0 1.073 0 1.086.82v8.054c0 .752-.515.806-1.086.819h-.285v.59h4.752v-.59h-.285c-.57 0-1.086 0-1.086-.819v-8.054c0-.752.516-.806 1.086-.82h.285v-.657c-.747 0-1.67.067-2.444.067zm-13.576 9.639c-.204-.457-.394-1.02-.57-1.558l-2.865-8.054-.136-.39a.19.19 0 0 0-.162-.093.398.398 0 0 0-.15 0 8.54 8.54 0 0 1-1.357.658c-.17.66-.38 1.31-.625 1.946l-2.498 7.061a1.356 1.356 0 0 1-1.29.953h-.163v.604h3.68v-.604h-.231c-.516 0-1.1-.094-1.1-.47a6.4 6.4 0 0 1 .34-1.181l.488-1.557h3.435l.597 1.745c.142.35.243.715.3 1.087 0 .296-.53.376-.897.376h-.244v.604h4.67v-.604h-.163a.912.912 0 0 1-1.018-.523h-.041zm-6.354-3.625l1.358-4.121 1.358 4.121h-2.716zm16.563-6.564v.067c0 .403-.34.403-.774.416h-8.145c-.394 0-.68 0-.788-.403h-.488v.067c.002.45-.03.898-.095 1.343 0 .443-.123.872-.19 1.342v.08h.597c.258-1.14.23-1.342 1.357-1.342h2.485v8.149c0 1.195-.367 1.208-1.222 1.221h-.367v.591h5.173v-.59h-.367c-.746 0-1.208-.095-1.221-1.262v-8.055h2.484c.344.02.662.187.87.458.21.271.288.619.216.952v.094l.557-.202v-1.248c0-.416.108-.832.176-1.235l-.448-.067h-.068l.258-.376z" fill="#000"/><path d="M27.424 53.763C12.42 53.868.157 41.953 0 27.117 0 11.088 12.381 0 27.424 0h7.046c14.866 0 28.428 11.075 28.428 27.117 0 14.659-13.576 26.646-28.428 26.646h-7.046zm0-51.535c-13.744 0-24.885 11.017-24.885 24.607S13.68 51.44 27.424 51.44c13.744 0 24.885-11.017 24.885-24.606 0-13.57-11.108-24.577-24.83-24.607h-.055zm-5.58 39.158V12.243c-6.122 2.296-10.17 8.097-10.17 14.571 0 6.475 4.048 12.275 10.17 14.572zm21.423-14.551c.006-6.473-4.029-12.277-10.141-14.592v29.116c6.09-2.306 10.118-8.077 10.141-14.524z" fill="#004A97"/></g></svg><svg width="114" height="74" viewBox="-2 -2 51 33" y="582"><g fill="none" fill-rule="evenodd"><path fill="#1A1919" d="M.514 28.466H46.41V.064H.514z"/><path d="M15.066 19.464a4.705 4.705 0 0 1-3.373 1.358 4.668 4.668 0 0 1-2.438-.735L7.5 22.894a7.943 7.943 0 0 0 4.146 1.238 7.966 7.966 0 0 0 5.723-2.292l-2.303-2.376zm-7.991-2.887a4.18 4.18 0 0 1-.029-.57c.042-2.621 2.189-4.71 4.796-4.668a4.69 4.69 0 0 1 3.53 1.682l-8.297 3.556zm4.814-8.552c-4.424-.068-8.07 3.482-8.138 7.929a8.033 8.033 0 0 0 1.298 4.52l14.526-6.234c-.818-3.513-3.93-6.155-7.686-6.215zM24.13 4.396v15.55l2.687 1.119-1.27 3.067-2.658-1.11c-.598-.26-1.002-.656-1.31-1.104-.294-.457-.513-1.084-.513-1.929V4.396h3.064zm9.687 7.186a4.724 4.724 0 0 1 6.12 3.55l3.237-.662c-.743-3.678-3.981-6.447-7.862-6.447-.889 0-1.743.146-2.54.414l1.045 3.145zM29.998 22.11l2.188-2.482a4.736 4.736 0 0 1-1.592-3.55c0-1.413.615-2.68 1.59-3.548l-2.187-2.483a8.049 8.049 0 0 0-2.705 6.03 8.047 8.047 0 0 0 2.706 6.034m9.939-5.081a4.726 4.726 0 0 1-4.625 3.787 4.692 4.692 0 0 1-1.497-.244l-1.048 3.145a7.98 7.98 0 0 0 2.545.415c3.878 0 7.115-2.765 7.861-6.438l-3.236-.666z" fill="#FFFFFE"/></g></svg><svg width="158" height="82" viewBox="-2 -2 158 82" y="656"><g fill="none" fill-rule="evenodd"><path d="M42.23 6.296H26.285c-7.045.326-12.803 3.108-14.464 8.84-.867 2.993-1.344 6.275-2.023 9.377C6.353 40.276 3.297 56.477 0 71.923h124.106c9.596 0 16.185-1.986 17.964-9.453.827-3.469 1.618-7.4 2.415-11.205 3.086-14.855 6.172-29.706 9.334-44.987H42.229v.018z" fill="#B82720"/><path d="M40.98 29.62c.666-.449 1.524-2.5.543-3.352-.302-.27-.83-.35-1.555-.228-.52.04-.998.288-1.323.686-.423.566-.81 2.264-.157 2.898.652.633 2.071.284 2.491-.003zm-9.482-3.352c-.478 3.04-1.015 6.017-1.556 8.994-3.463.035-7.002.169-10.342-.077.631-2.912 1.084-6.002 1.712-8.917h-3.735c-1.338 7.431-2.551 14.978-4.043 22.256h3.81c.605-3.732 1.157-7.506 1.945-11.051 3.25-.08 7.145-.216 10.267.077-.655 3.7-1.425 7.25-2.026 10.974h3.81c1.223-7.541 2.516-15.017 4.044-22.256h-3.886zm53.89 6.398c-2.965-1.183-5.296.811-6.377 2.664.245-.826.347-1.793.544-2.664H76.61c-.721 5.49-1.787 10.655-2.799 15.855h3.346c.468-3.09.67-7.257 1.712-10.214.83-2.367 3.02-4.374 6.145-3.276.03-.87.284-1.536.374-2.365zm1.867 12.135c-.302-.781-.39-2.072-.302-3.049.172-2.202.99-4.883 2.255-6.096 1.746-1.676 5.188-1.397 7.933-.46.084-.908.272-1.716.39-2.592-4.503-.722-8.779-.272-11.043 2.072-2.22 2.282-3.672 7.523-2.646 10.823 1.208 3.848 6.598 4.07 10.965 2.593.193-.775.302-1.64.465-2.439-2.392 1.19-6.955 1.812-8.017-.852zm37.56-12.043c-2.956-1.447-5.417.983-6.377 2.439.275-.749.302-1.75.544-2.516h-2.957a240.602 240.602 0 0 1-2.877 15.855h3.42c.022-2.101.445-3.655.78-5.718.716-4.401 1.763-9.225 7-7.775.178-.755.25-1.598.47-2.297l-.003.012zm-87.266-.077c-.09 0-.085.122-.079.228-.736 5.401-1.733 10.548-2.799 15.627h3.343c.803-5.437 1.724-10.761 2.878-15.855h-3.343zm29.399-.31c-2.416.183-4.46.864-5.91 2.367-1.781 1.838-3.222 5.902-2.799 9.604.604 5.28 7.31 5.09 12.683 3.812.09-.926.32-1.72.468-2.592-2.21.81-6.04 1.941-8.322.532-1.716-1.062-1.728-3.756-1.166-6.097 3.605-.112 7.353-.091 10.964 0 .23-1.66.885-3.468.302-5.108-.746-2.172-3.454-2.732-6.22-2.519zm3.188 5.791h-7.85c.355-2.146 2.214-3.745 4.432-3.812 2.416-.094 4.155.865 3.427 3.81l-.009.002zm-15.853-5.496c-2.829-1.041-6.28.202-7.775 1.385 0 .054-.036.06-.079.063l.079-.063c.024-.509.208-.864.233-1.373h-2.878c-1.208 7.82-2.621 15.42-4.122 22.943h3.352c.483-2.93.803-6.02 1.476-8.766.764 2.886 5.738 2.335 7.851 1.22 4.337-2.31 7.685-13.26 1.863-15.409zm-2.645 12.88c-1.787 1.86-6.187 1.83-6.531-1.296-.151-1.358.365-2.785.622-4.19.257-1.406.444-2.791.7-4.04 1.764-2.11 6.946-2.368 7.465 1.142.456 3.051-.773 6.852-2.256 8.39v-.005zm85.621-19.74a72.974 72.974 0 0 1-1.165 7.103c-8.202-2.545-13.232 3.371-13.145 10.673.018 1.411.266 2.811 1.166 3.812 1.552 1.722 6 2.133 8.243.686.442-.324.835-.71 1.166-1.142.217-.267.559-.962.622-.764a16.7 16.7 0 0 0-.302 2.368h3.02c.586-8.219 2.391-15.24 3.732-22.715h-3.337v-.021zm-7.464 20.96c-2.253.047-3.37-1.317-3.421-3.581-.091-3.966 1.685-8.37 5.287-8.767 1.679-.183 2.893.199 4.122.61-1.13 4.446-.722 11.632-5.988 11.744v-.006zm-28.853-14.1c-.163.906-.416 1.726-.622 2.593 1.975-.485 8.117-1.971 8.709.61.196.858-.142 1.775-.39 2.438-5.556-.515-10.085.388-11.275 4.268-.797 2.599.09 5.156 1.788 5.87 3.273 1.372 7.247-.202 8.633-2.368-.18.8-.258 1.62-.233 2.438h2.878c.03-2.702.432-4.886.855-7.316.362-2.072 1.041-4.12.933-5.946-.245-4.176-7.317-2.696-11.276-2.587zm5.436 12.807c-1.724 1.654-6.562 2.122-6.067-1.83.42-3.282 4.08-3.977 8.005-3.504-.28 1.797-.604 4.07-1.93 5.337l-.008-.003z" fill="#FFF"/></g></svg><svg height="84" width="114" viewBox="-2 -2 99 78" y="738"><g fill-rule="evenodd" fill="none"><path fill="#F79F1A" d="M94.92 29.255c0 16.066-13.119 29.09-29.302 29.09s-29.302-13.024-29.302-29.09C36.316 13.19 49.435.166 65.618.166S94.92 13.19 94.92 29.255z"/><path fill="#EA001B" d="M58.772 29.255c0 16.066-13.119 29.09-29.302 29.09S.168 45.321.168 29.255C.168 13.19 13.287.166 29.47.166S58.772 13.19 58.772 29.255z"/><path fill="#FF5F01" d="M47.544 6.356c-6.837 5.326-11.225 13.601-11.225 22.897s4.388 17.577 11.225 22.902c6.837-5.325 11.225-13.606 11.225-22.902s-4.388-17.57-11.225-22.897z"/><path d="M6.686 72.735H5.023v-7.689h1.63v.937s1.432-1.145 2.282-1.13c1.654.027 2.641 1.42 2.641 1.42s.801-1.42 2.608-1.42c2.673 0 3.065 2.422 3.065 2.422v5.428h-1.597v-4.782s.005-1.453-1.728-1.453c-1.793 0-1.957 1.454-1.957 1.454v4.781h-1.662v-4.814s-.16-1.518-1.663-1.518c-1.952 0-1.989 1.55-1.989 1.55l.033 4.814zm50.566-7.884c-.851-.014-2.282 1.131-2.282 1.131v-.935h-1.632v7.687h1.664l-.032-4.813s.036-1.547 1.988-1.547c.363 0 .645.087.867.22v-.006l.542-1.497a3.01 3.01 0 0 0-1.115-.24zm23.422 0c-.85-.014-2.282 1.131-2.282 1.131v-.935H76.76v7.687h1.664l-.032-4.813s.037-1.547 1.989-1.547c.363 0 .644.087.867.22v-.006l.542-1.497a3.011 3.011 0 0 0-1.116-.24zm-58.048-.031c-2.489 0-3.806 2.216-3.812 4.067-.007 1.898 1.499 4.087 3.882 4.087 1.39 0 2.532-1.017 2.532-1.017l-.003.783h1.637v-7.696h-1.643v.97s-1.072-1.194-2.593-1.194zm.318 1.566c1.337 0 2.423 1.153 2.423 2.571s-1.086 2.564-2.423 2.564-2.416-1.146-2.416-2.564 1.079-2.57 2.416-2.57zm47.412-1.566c-2.488 0-3.805 2.216-3.812 4.067-.007 1.898 1.499 4.087 3.882 4.087 1.39 0 2.532-1.017 2.532-1.017l-.003.783h1.637v-7.696H72.95v.97s-1.073-1.194-2.594-1.194zm.319 1.566c1.337 0 2.422 1.153 2.422 2.571s-1.085 2.564-2.422 2.564-2.416-1.146-2.416-2.564 1.079-2.57 2.416-2.57zm15.396-1.566c-2.489 0-3.806 2.216-3.812 4.067-.007 1.898 1.499 4.087 3.882 4.087 1.39 0 2.532-1.017 2.532-1.017l-.003.783h1.637V62.006h-1.643v4.008s-1.072-1.194-2.593-1.194zm.318 1.566c1.337 0 2.423 1.153 2.423 2.571s-1.086 2.564-2.423 2.564-2.416-1.146-2.416-2.564 1.079-2.57 2.416-2.57zm-54.534 6.607c-1.695 0-3.26-1.033-3.26-1.033l.717-1.099s1.481.679 2.543.679c.69 0 1.845-.221 1.859-.905.014-.723-1.94-.937-1.94-.937s-2.918-.04-2.918-2.423c0-1.499 1.457-2.455 3.325-2.455 1.08 0 3.097.937 3.097.937l-.815 1.26s-1.558-.617-2.38-.646c-.694-.025-1.532.304-1.532.904 0 1.63 4.858-.127 4.858 3.166 0 2.161-1.979 2.552-3.554 2.552zm6.254-10.176v2.237h-1.447v1.617h1.447v3.865s-.128 2.615 2.709 2.615c.785 0 2.321-.575 2.321-.575l-.657-1.68s-.611.516-1.3.5c-1.312-.034-1.275-.866-1.275-.866v-3.86h2.703v-1.615h-2.703v-2.238h-1.798zm9.849 2.098c-2.669 0-4.002 2.177-3.991 4.067.012 1.944 1.214 4.131 4.15 4.131 1.257 0 3.022-1.093 3.022-1.093l-.759-1.307s-1.204.846-2.263.846c-2.119 0-2.256-2.052-2.256-2.052h5.673s.423-4.592-3.576-4.592zm-.243 1.51c.063-.004.131 0 .198 0 1.997 0 1.983 1.869 1.983 1.869h-4.035s-.096-1.76 1.854-1.87zm17.118 4.268l.761 1.508s-1.206.776-2.559.776c-2.802 0-4.357-2.089-4.357-4.066 0-3.107 2.475-4.02 4.149-4.02 1.52 0 2.836.868 2.836.868l-.853 1.508s-.517-.8-2.029-.8c-1.509 0-2.305 1.29-2.305 2.513 0 1.371.927 2.536 2.328 2.536 1.1 0 2.029-.823 2.029-.823z" fill="#fff"/></g></svg><svg height="94" width="114" viewBox="-2 -2 99 78" y="822"><g fill-rule="evenodd" fill="none"><path fill="#F79F1A" d="M94.92 29.255c0 16.066-13.119 29.09-29.302 29.09s-29.302-13.024-29.302-29.09C36.316 13.19 49.435.166 65.618.166S94.92 13.19 94.92 29.255z"/><path fill="#EA001B" d="M58.772 29.255c0 16.066-13.119 29.09-29.302 29.09S.168 45.321.168 29.255C.168 13.19 13.287.166 29.47.166S58.772 13.19 58.772 29.255z"/><path fill="#FF5F01" d="M47.544 6.356c-6.837 5.326-11.225 13.601-11.225 22.897s4.388 17.577 11.225 22.902c6.837-5.325 11.225-13.606 11.225-22.902s-4.388-17.57-11.225-22.897z"/><path d="M6.686 72.735H5.023v-7.689h1.63v.937s1.432-1.145 2.282-1.13c1.654.027 2.641 1.42 2.641 1.42s.801-1.42 2.608-1.42c2.673 0 3.065 2.422 3.065 2.422v5.428h-1.597v-4.782s.005-1.453-1.728-1.453c-1.793 0-1.957 1.454-1.957 1.454v4.781h-1.662v-4.814s-.16-1.518-1.663-1.518c-1.952 0-1.989 1.55-1.989 1.55l.033 4.814zm50.566-7.884c-.851-.014-2.282 1.131-2.282 1.131v-.935h-1.632v7.687h1.664l-.032-4.813s.036-1.547 1.988-1.547c.363 0 .645.087.867.22v-.006l.542-1.497a3.01 3.01 0 0 0-1.115-.24zm23.422 0c-.85-.014-2.282 1.131-2.282 1.131v-.935H76.76v7.687h1.664l-.032-4.813s.037-1.547 1.989-1.547c.363 0 .644.087.867.22v-.006l.542-1.497a3.011 3.011 0 0 0-1.116-.24zm-58.048-.031c-2.489 0-3.806 2.216-3.812 4.067-.007 1.898 1.499 4.087 3.882 4.087 1.39 0 2.532-1.017 2.532-1.017l-.003.783h1.637v-7.696h-1.643v.97s-1.072-1.194-2.593-1.194zm.318 1.566c1.337 0 2.423 1.153 2.423 2.571s-1.086 2.564-2.423 2.564-2.416-1.146-2.416-2.564 1.079-2.57 2.416-2.57zm47.412-1.566c-2.488 0-3.805 2.216-3.812 4.067-.007 1.898 1.499 4.087 3.882 4.087 1.39 0 2.532-1.017 2.532-1.017l-.003.783h1.637v-7.696H72.95v.97s-1.073-1.194-2.594-1.194zm.319 1.566c1.337 0 2.422 1.153 2.422 2.571s-1.085 2.564-2.422 2.564-2.416-1.146-2.416-2.564 1.079-2.57 2.416-2.57zm15.396-1.566c-2.489 0-3.806 2.216-3.812 4.067-.007 1.898 1.499 4.087 3.882 4.087 1.39 0 2.532-1.017 2.532-1.017l-.003.783h1.637V62.006h-1.643v4.008s-1.072-1.194-2.593-1.194zm.318 1.566c1.337 0 2.423 1.153 2.423 2.571s-1.086 2.564-2.423 2.564-2.416-1.146-2.416-2.564 1.079-2.57 2.416-2.57zm-54.534 6.607c-1.695 0-3.26-1.033-3.26-1.033l.717-1.099s1.481.679 2.543.679c.69 0 1.845-.221 1.859-.905.014-.723-1.94-.937-1.94-.937s-2.918-.04-2.918-2.423c0-1.499 1.457-2.455 3.325-2.455 1.08 0 3.097.937 3.097.937l-.815 1.26s-1.558-.617-2.38-.646c-.694-.025-1.532.304-1.532.904 0 1.63 4.858-.127 4.858 3.166 0 2.161-1.979 2.552-3.554 2.552zm6.254-10.176v2.237h-1.447v1.617h1.447v3.865s-.128 2.615 2.709 2.615c.785 0 2.321-.575 2.321-.575l-.657-1.68s-.611.516-1.3.5c-1.312-.034-1.275-.866-1.275-.866v-3.86h2.703v-1.615h-2.703v-2.238h-1.798zm9.849 2.098c-2.669 0-4.002 2.177-3.991 4.067.012 1.944 1.214 4.131 4.15 4.131 1.257 0 3.022-1.093 3.022-1.093l-.759-1.307s-1.204.846-2.263.846c-2.119 0-2.256-2.052-2.256-2.052h5.673s.423-4.592-3.576-4.592zm-.243 1.51c.063-.004.131 0 .198 0 1.997 0 1.983 1.869 1.983 1.869h-4.035s-.096-1.76 1.854-1.87zm17.118 4.268l.761 1.508s-1.206.776-2.559.776c-2.802 0-4.357-2.089-4.357-4.066 0-3.107 2.475-4.02 4.149-4.02 1.52 0 2.836.868 2.836.868l-.853 1.508s-.517-.8-2.029-.8c-1.509 0-2.305 1.29-2.305 2.513 0 1.371.927 2.536 2.328 2.536 1.1 0 2.029-.823 2.029-.823z" fill="#000"/></g></svg><svg width="394" height="82" viewBox="-2 -2 444 82" y="916"><path d="M61.024 32.148c-.063 5.294 4.735 8.244 8.349 10.004 3.712 1.802 4.958 2.956 4.944 4.566-.028 2.468-2.962 3.556-5.708 3.598-4.792.074-7.575-1.292-9.792-2.322l-1.726 8.054c2.226 1.02 6.34 1.908 10.603 1.952 10.017 0 16.568-4.932 16.6-12.576.042-9.698-13.45-10.234-13.359-14.568.031-1.317 1.289-2.718 4.045-3.077 1.365-.178 5.133-.315 9.4 1.643l1.676-7.793C83.76 20.799 80.809 20 77.134 20c-9.423 0-16.057 4.996-16.11 12.148zm41.141-11.475a4.34 4.34 0 0 0-4.06 2.695L83.798 57.427H93.81l1.988-5.492h12.231l1.152 5.492H118l-7.698-36.754h-8.137zm1.397 9.93l2.889 13.8h-7.91l5.021-13.8zm-54.668-9.93l-7.888 36.754h9.535l7.885-36.754h-9.532zm-14.109 0l-9.923 25.015-4.014-21.27c-.47-2.374-2.331-3.745-4.398-3.745H.225L0 21.738c3.33.722 7.114 1.887 9.407 3.128 1.403.76 1.803 1.422 2.265 3.228l7.602 29.333h10.079L44.8 20.673H34.785z" fill="#FFF" fill-rule="evenodd"/></svg><svg width="394" height="82" viewBox="-2 -2 444 82" y="998"><path d="M61.024 32.148c-.063 5.294 4.735 8.244 8.349 10.004 3.712 1.802 4.958 2.956 4.944 4.566-.028 2.468-2.962 3.556-5.708 3.598-4.792.074-7.575-1.292-9.792-2.322l-1.726 8.054c2.226 1.02 6.34 1.908 10.603 1.952 10.017 0 16.568-4.932 16.6-12.576.042-9.698-13.45-10.234-13.359-14.568.031-1.317 1.289-2.718 4.045-3.077 1.365-.178 5.133-.315 9.4 1.643l1.676-7.793C83.76 20.799 80.809 20 77.134 20c-9.423 0-16.057 4.996-16.11 12.148zm41.141-11.475a4.34 4.34 0 0 0-4.06 2.695L83.798 57.427H93.81l1.988-5.492h12.231l1.152 5.492H118l-7.698-36.754h-8.137zm1.397 9.93l2.889 13.8h-7.91l5.021-13.8zm-54.668-9.93l-7.888 36.754h9.535l7.885-36.754h-9.532zm-14.109 0l-9.923 25.015-4.014-21.27c-.47-2.374-2.331-3.745-4.398-3.745H.225L0 21.738c3.33.722 7.114 1.887 9.407 3.128 1.403.76 1.803 1.422 2.265 3.228l7.602 29.333h10.079L44.8 20.673H34.785z" fill="#143281" fill-rule="evenodd"/></svg></svg>